<?xml version="1.0" standalone="no"?>
<!DOCTYPE svg PUBLIC "-//W3C//DTD SVG 1.1//EN" "http://www.w3.org/Graphics/SVG/1.1/DTD/svg11.dtd" >
<svg xmlns="http://www.w3.org/2000/svg">
<metadata></metadata>
<defs>
<font id="hero_lightlight" horiz-adv-x="1261" >
<font-face units-per-em="2048" ascent="1536" descent="-512" />
<missing-glyph horiz-adv-x="559" />
<glyph horiz-adv-x="2048" />
<glyph horiz-adv-x="2048" />
<glyph unicode="&#xd;" horiz-adv-x="2048" />
<glyph unicode=" "  horiz-adv-x="559" />
<glyph unicode="&#x09;" horiz-adv-x="559" />
<glyph unicode="&#xa0;" horiz-adv-x="559" />
<glyph unicode="!" horiz-adv-x="374" d="M117 25q0 -21 17.5 -30t35.5 0t18 30v118q0 21 -18 30t-35.5 0t-17.5 -30v-118zM117 330v954q0 19 17.5 27t35.5 0t18 -27v-954q0 -21 -18 -30.5t-35.5 -0.5t-17.5 31z" />
<glyph unicode="&#x22;" horiz-adv-x="520" d="M84 1042v236q0 21 17.5 30t35 0t17.5 -30v-236q0 -21 -17.5 -30t-35 0t-17.5 30zM274 1042v236q0 21 17 30t34 0t17 -30v-236q0 -21 -17 -30t-34 0t-17 30z" />
<glyph unicode="#" horiz-adv-x="1134" d="M53 483q0 13 11.5 24t25.5 11h158l51 291h-158q-15 0 -26 9.5t-11 25.5t11.5 26.5t25.5 10.5h170l72 417q3 35 37 35q18 0 27.5 -13.5t7.5 -31.5l-70 -407h363l71 417q6 35 39 35q17 0 27.5 -14t5.5 -31l-70 -407h150q14 0 25.5 -11t11.5 -24q0 -37 -37 -37h-162 l-51 -291h162q15 0 25.5 -9.5t10.5 -25.5q0 -37 -36 -37h-175l-71 -432q-8 -32 -39 -32q-18 0 -28 13.5t-5 31.5l72 419h-365l-73 -432q-3 -32 -37 -32q-18 0 -27.5 13.5t-7.5 31.5l72 419h-146q-14 0 -25.5 10.5t-11.5 26.5zM322 518h364l49 291h-362z" />
<glyph unicode="$" horiz-adv-x="1431" d="M94 266q-6 20 7 33.5t30.5 9.5t24.5 -24q17 -60 64.5 -107t111.5 -74.5t126.5 -43t125.5 -21.5q40 -4 63 -4v586q-53 5 -88 8.5t-84 10.5t-82 15.5t-73.5 22t-67 30t-53.5 40t-42.5 52t-25.5 66.5t-10 82q0 58 22 108t57.5 86t84.5 64.5t98.5 46.5t103.5 29q80 18 160 18 v119q0 19 14.5 27t29 0t14.5 -27v-119q79 -3 150.5 -16.5t145 -41t128.5 -78t81 -120.5q8 -24 -4 -37t-30 -9t-25 22q-72 208 -446 217v-561q90 -8 138 -13.5t124.5 -19t118.5 -34.5t87 -54t64.5 -83t19.5 -116q0 -84 -34.5 -150.5t-89.5 -108.5t-129.5 -70t-147.5 -40 t-151 -14v-120q0 -17 -14.5 -24.5t-29 0t-14.5 24.5v122q-67 2 -131.5 11.5t-134.5 31t-126 53t-99.5 82t-61.5 113.5zM188 944q0 -44 13.5 -79.5t34.5 -60t58 -44t71 -31.5t87 -21.5t93 -14.5t102 -11v555h-37q-60 -4 -119 -17.5t-119 -38.5t-106 -68t-65 -99 q-13 -37 -13 -70zM705 35q64 1 127 11t129 33.5t116 58.5t81.5 90.5t31.5 125.5q0 36 -9 65.5t-23 52.5t-39 42t-48.5 32t-61 24t-67 17.5t-76 12.5t-78.5 9t-83 7v-581z" />
<glyph unicode="%" horiz-adv-x="1310" d="M102 1040q0 113 74 198t191 85q110 0 187 -81.5t77 -201.5q0 -113 -73.5 -201.5t-190.5 -88.5q-112 0 -188.5 81t-76.5 209zM140.5 7q-7.5 15 4.5 36l920 1300q13 18 32 15t25.5 -19t-4.5 -36l-919 -1301q-12 -16 -31.5 -13t-27 18zM162 1040q0 -86 57 -155.5t148 -69.5 q88 0 142.5 62t57.5 163q0 86 -56 151.5t-144 65.5q-85 0 -145 -64t-60 -153zM651 285q0 113 73.5 197.5t190.5 84.5q110 0 187.5 -81t77.5 -201q0 -113 -74 -202t-191 -89q-112 0 -188 81.5t-76 209.5zM711 285q0 -86 56.5 -156t147.5 -70q88 0 143 62.5t58 163.5 q0 86 -56 151.5t-145 65.5q-85 0 -144.5 -64t-59.5 -153z" />
<glyph unicode="&#x26;" horiz-adv-x="1327" d="M74 354q0 122 76.5 200t203.5 99q-111 27 -180.5 107.5t-69.5 197.5q0 75 29.5 136.5t78 102.5t112.5 69t131.5 40.5t136.5 12.5q71 -1 139 -13.5t132.5 -41t112 -69.5t76 -103t27.5 -138q0 -18 -15.5 -25t-30.5 0.5t-15 24.5q0 73 -36.5 132.5t-96.5 96t-136.5 56.5 t-156.5 20t-156.5 -20t-136.5 -56.5t-96.5 -96t-36.5 -132.5q0 -272 424 -272h635q17 0 23.5 -15t0 -30.5t-23.5 -15.5h-135v-269q0 -87 -28.5 -155t-75.5 -111.5t-113 -71.5t-136 -39.5t-149 -11.5q-77 1 -146.5 12t-138.5 39t-118.5 71t-80 112t-30.5 157zM131 350 q0 -72 30 -130t77 -94.5t109 -61t122.5 -34.5t120.5 -10q62 0 120.5 9t117.5 33t103 60t71.5 95t27.5 133v271h-440q-76 0 -136.5 -5.5t-123 -23t-104.5 -46.5t-68.5 -79t-26.5 -117z" />
<glyph unicode="'" horiz-adv-x="425" d="M117 1042v236q0 21 16.5 30t33.5 0t17 -30v-236q0 -21 -17 -30t-33.5 0t-16.5 30z" />
<glyph unicode="(" horiz-adv-x="557" d="M95.5 426.5q-21.5 170.5 1 341t100 325t198.5 259.5q17 17 36.5 9t23.5 -26.5t-13 -36.5q-93 -79 -158.5 -193.5t-96.5 -241.5t-31.5 -265t30.5 -265t96 -241.5t158 -193.5q14 -11 16 -28.5t-10 -29.5q-26 -23 -51 2q-122 105 -200 259.5t-99.5 325z" />
<glyph unicode=")" horiz-adv-x="555" d="M37 -141q2 17 16 28q140 119 213 310t72 388.5t-75 389t-212 311.5q-12 11 -14 28t10 29q26 23 51 -2q122 -105 200 -259.5t99.5 -324.5t-1 -340.5t-100 -325t-198.5 -259.5q-25 -25 -51 -2q-12 12 -10 29z" />
<glyph unicode="*" horiz-adv-x="663" d="M68 980q0 16 16 30l139 75l-139 78q-15 13 -16 29.5t14.5 27t34.5 1.5l141 -93l-8 168q0 19 16 27.5t32.5 0.5t16.5 -28l-6 -166l137 91q28 12 45 -13t-10 -45l-139 -78l139 -75q24 -19 9.5 -45t-44.5 -13l-135 92l4 -167q0 -20 -15.5 -28.5t-31.5 0t-16 28.5l6 167 l-141 -92q-18 -9 -33.5 1.5t-15.5 26.5z" />
<glyph unicode="+" horiz-adv-x="1161" d="M98 602q0 16 10.5 25.5t24.5 9.5h375v375q0 14 9.5 24.5t25.5 10.5q13 0 24 -10.5t11 -24.5v-375h372q37 0 37 -35q0 -14 -10 -24.5t-27 -10.5h-372v-372q0 -17 -10.5 -27t-24.5 -10q-35 0 -35 37v372h-375q-13 0 -24 10.5t-11 24.5z" />
<glyph unicode="," horiz-adv-x="301" d="M37 -166l92 207q16 37 45 30q23 -5 27 -29q2 -14 -6 -28l-99 -209q-9 -19 -28 -19.5t-29.5 15t-1.5 33.5z" />
<glyph unicode="-" horiz-adv-x="841" d="M123.5 598q-9.5 18 1 35.5t33.5 17.5h446q23 0 32.5 -17.5t0 -35.5t-32.5 -18h-446q-25 0 -34.5 18z" />
<glyph unicode="." horiz-adv-x="288" d="M66 49q0 23 15 38t38 15t37 -15t14 -38t-14 -37t-37 -14t-38 14t-15 37z" />
<glyph unicode="/" horiz-adv-x="763" d="M12 -166l633 1489q11 23 32.5 26t34 -13.5t1.5 -39.5l-637 -1491q-12 -25 -31.5 -27t-31 15.5t-1.5 40.5z" />
<glyph unicode="0" horiz-adv-x="1097" d="M80 465v369q-1 104 30.5 190.5t86 142.5t125 95.5t148.5 48t156.5 0t149 -48t125 -95.5t86.5 -142.5t31 -190.5v-369q1 -104 -31 -190.5t-86.5 -142.5t-125 -95.5t-149 -48t-156.5 0t-148.5 48t-125 95.5t-86 142.5t-30.5 190.5zM143 465q-1 -115 43.5 -205.5t116 -137 t158 -68.5t173.5 0t158.5 68.5t116 137t43.5 205.5v369q1 115 -43.5 205.5t-116 137t-158 68.5t-173.5 0t-158.5 -68.5t-116 -137t-43.5 -205.5v-369z" />
<glyph unicode="1" horiz-adv-x="661" d="M133.5 834.5q-6.5 15.5 5.5 35.5l320 437q8 11 21.5 15.5t25.5 0.5q31 -9 31 -39v-1282q0 -22 -16.5 -31t-33 0t-16.5 31v1221l-278 -387q-14 -19 -33.5 -18t-26 16.5z" />
<glyph unicode="2" horiz-adv-x="1163" d="M117 31q-7 28 16 45q84 62 308.5 225.5t344.5 253.5q208 152 175 381q-20 149 -122.5 227t-256.5 78q-156 0 -259 -77.5t-124 -227.5q-4 -32 -4 -55q0 -16 -15.5 -22.5t-31 0t-15.5 22.5q0 25 4 65q25 176 146.5 269.5t300.5 93.5q174 0 296 -95t146 -268 q42 -258 -195 -434l-485 -360l-149 -95l180 9h645q23 0 32.5 -16t0 -32t-32.5 -16h-866q-12 0 -23 8.5t-16 20.5z" />
<glyph unicode="3" horiz-adv-x="1161" d="M98 426q0 18 16 25.5t32 0t16 -25.5q0 -35 4 -51q21 -166 132 -243t282 -77q153 0 256.5 84t124.5 236q18 124 -37.5 235.5t-169.5 161.5q-62 26 -130.5 25t-127.5 -29q-19 -12 -38.5 -1.5t-19.5 32.5q0 20 13 30l446 412h-723q-21 0 -30 16.5t0 33t30 16.5h784 q30 0 39.5 -28.5t-14.5 -47.5l-287 -266l-151 -123q57 18 123.5 16.5t113.5 -20.5q138 -55 201 -188.5t39 -289.5q-24 -172 -145.5 -270t-296.5 -98q-427 0 -478 368q-4 46 -4 66z" />
<glyph unicode="4" horiz-adv-x="1048" d="M60.5 338q-14.5 25 7.5 59l534 910q17 28 44.5 12.5t10.5 -45.5l-536 -899h772v905q0 12 9 21.5t22 9.5q12 0 21 -9.5t9 -21.5v-1247q0 -21 -15 -30t-30.5 -0.5t-15.5 28.5v282h-778q-40 0 -54.5 25z" />
<glyph unicode="5" horiz-adv-x="1148" d="M88 426q0 18 16 25.5t32 0t16 -25.5q0 -19 4 -51q42 -312 399 -312q108 0 194 41.5t131 108t66.5 147t1 161t-65.5 147t-134 108t-203 41.5h-400q-14 0 -23 9t-9 22v409q0 25 13.5 38.5t37.5 13.5h700q14 0 23.5 -9.5t9.5 -23.5q0 -12 -10 -21.5t-23 -9.5h-688v-364h369 q132 0 234.5 -48.5t154 -126t74.5 -171t-2.5 -187.5t-77 -171.5t-150 -126t-221.5 -48.5q-414 0 -463 358q-6 34 -6 66z" />
<glyph unicode="6" horiz-adv-x="1150" d="M119 393v385q0 164 44.5 275t168.5 188q145 92 323 76q184 -16 312 -141q16 -16 10 -34t-23.5 -21t-35.5 12q-105 102 -257 121t-278 -54q-64 -37 -105 -83.5t-61 -104.5t-26.5 -112.5t-6.5 -129.5v-125q50 114 166 183t244 69q126 0 232.5 -57t170 -161t64.5 -233 q1 -94 -32.5 -177t-90 -141t-133 -96.5t-158 -50.5t-168.5 4.5t-162 61.5q-92 56 -145 148t-53 198zM186 395q0 -89 43 -168.5t119 -124.5q80 -48 171 -59.5t173 13t149.5 75.5t107.5 133.5t40 181.5q0 160 -113.5 274t-277.5 114q-105 0 -198 -46t-151.5 -130.5 t-60.5 -186.5z" />
<glyph unicode="7" horiz-adv-x="1083" d="M108.5 1255.5q-9.5 16.5 0 33t32.5 16.5h783q39 0 53 -22t-10 -56l-695 -1221q-10 -16 -32 -16q-12 0 -22.5 10.5t-10.5 22.5q0 10 4 18l684 1198h-754q-23 0 -32.5 16.5z" />
<glyph unicode="8" horiz-adv-x="1226" d="M84 356q0 125 78.5 203.5t208.5 99.5q-112 29 -182 110t-70 198q0 82 37 151q58 111 184.5 161t269.5 50q65 0 128 -11t125.5 -34t114.5 -66t81 -100q39 -73 39 -151q0 -123 -67.5 -199.5t-186.5 -105.5q129 -19 209 -102t80 -206q0 -87 -31 -155t-81.5 -111.5 t-120.5 -71.5t-142 -39.5t-152 -11.5q-78 1 -148.5 12t-140.5 39t-120 71t-81.5 112t-31.5 157zM145 352q0 -72 29.5 -130t77 -95t109.5 -62t123.5 -35t123.5 -10t122.5 9.5t123.5 33.5t110 60.5t77 95.5t30 133q0 281 -463 281q-76 0 -137.5 -6.5t-124.5 -25t-105.5 -48.5 t-69 -81.5t-26.5 -119.5zM178 963q0 -281 428 -281q430 0 430 281q0 42 -10 73q-22 75 -87.5 129t-150 79t-180.5 25t-180.5 -25t-150 -79t-87.5 -129q-12 -30 -12 -73z" />
<glyph unicode="9" horiz-adv-x="1144" d="M90 848q-1 95 31.5 178t89 141t132 96.5t157.5 50t168.5 -4.5t162.5 -62q92 -55 144.5 -147.5t52.5 -198.5v-383q0 -164 -44.5 -275t-168.5 -190q-147 -93 -339.5 -72t-317.5 142q-16 16 -10 34.5t23.5 22t35.5 -11.5q104 -103 268.5 -124t292.5 52q63 37 104 83.5 t60.5 104t26 111t6.5 127.5v127q-50 -113 -166.5 -181.5t-245.5 -68.5q-126 0 -231.5 57t-168 160.5t-63.5 231.5zM154 848q0 -160 117.5 -272.5t279.5 -112.5q106 0 198.5 46t150.5 129.5t61 186.5l2 74q0 90 -43 169t-119 126q-67 40 -142.5 54t-146.5 4.5t-136.5 -42.5 t-114.5 -83.5t-78 -123t-29 -155.5z" />
<glyph unicode=":" horiz-adv-x="292" d="M61 61q0 23 14.5 38.5t37.5 15.5t38 -15.5t15 -38.5t-15 -38t-38 -15t-37.5 15t-14.5 38zM61 975q0 23 14.5 38t37.5 15t38 -15t15 -38t-15 -37t-38 -14t-37.5 14t-14.5 37z" />
<glyph unicode=";" horiz-adv-x="317" d="M6 -145q-9 -18 2 -33.5t30 -15t28 19.5l98 209q16 28 -5 48q-22 19 -45 2q-11 -8 -18 -24zM88 975q0 23 14 38t37 15t38.5 -15t15.5 -38t-15 -37t-39 -14q-23 0 -37 14t-14 37z" />
<glyph unicode="&#x3c;" horiz-adv-x="649" d="M66 610q-37 35 4 76l381 367q10 10 22 10q37 0 37 -37q0 -12 -12 -27l-373 -354l371 -352q14 -14 14 -29q0 -14 -10 -24.5t-27 -10.5q-14 0 -27 13z" />
<glyph unicode="=" horiz-adv-x="1077" d="M98 569q0 33 33 33h690q14 0 24.5 -10t10.5 -23t-10.5 -23.5t-24.5 -10.5h-690q-13 0 -23 10t-10 24zM98 868q0 14 10 24.5t23 10.5h690q13 0 24 -10.5t11 -24.5q0 -13 -10.5 -23.5t-24.5 -10.5h-690q-13 0 -23 10t-10 24z" />
<glyph unicode="&#x3e;" horiz-adv-x="722" d="M102 268q0 14 15 29l364 352l-366 355q-13 16 -13 26q0 37 37 37q13 0 23 -10l381 -367q41 -41 4 -76l-381 -368q-13 -13 -27 -13q-17 0 -27 10.5t-10 24.5z" />
<glyph unicode="?" horiz-adv-x="1271" d="M41 1044q26 81 84.5 138.5t136 86.5t153 41.5t158.5 12.5q75 0 151.5 -13t153.5 -44t136 -75.5t95 -113.5t34 -153q-2 -80 -35 -141t-83.5 -98t-111.5 -66t-121.5 -53.5t-110.5 -52t-81 -70.5t-31 -101v-84q0 -19 -16.5 -27t-33.5 0t-17 27v86q0 54 19.5 97t52 72 t74.5 53t89 43.5l94 39t90 44.5t76 55.5t53 75.5t21 102q1 74 -31.5 132t-83.5 93.5t-119.5 58.5t-134 32t-131.5 9q-388 0 -471 -231q-7 -19 -24.5 -23t-29.5 9.5t-5 37.5zM502 12v113q0 20 17 28.5t33.5 0t16.5 -28.5v-113q0 -20 -16.5 -28.5t-33.5 0t-17 28.5z" />
<glyph unicode="@" horiz-adv-x="1662" d="M61 442q0 148 58 282.5t155.5 232t233 155t283.5 57.5t281 -56.5t233 -156.5t156.5 -233t56.5 -281q0 -122 -29 -229q-72 -250 -205 -250q-64 0 -105.5 44t-41.5 108v71q-36 -108 -158 -176q-76 -42 -158 -52.5t-155.5 8t-140.5 61.5t-116 103t-79 137.5t-31 160.5 q-3 115 47.5 221.5t149.5 179.5q94 71 225.5 81.5t249.5 -46t166 -166.5v174q0 14 9.5 23.5t22.5 9.5t23 -9.5t10 -23.5v-757q0 -38 22 -64t60 -26q30 0 56.5 22t44.5 59t28.5 65t18.5 58q26 98 26 213q0 135 -51.5 256.5t-144.5 214.5q-92 92 -213.5 143.5t-257.5 51.5 q-182 0 -335.5 -89t-243 -242.5t-89.5 -334.5q0 -164 74 -307.5t209 -238.5q133 -93 291.5 -115.5t312.5 31.5q16 5 28 -7.5t10 -29t-20 -23.5q-167 -57 -339.5 -32t-317.5 126q-147 103 -228.5 259.5t-81.5 336.5zM365 426q2 -85 36.5 -162t92.5 -131t130 -85.5 t155.5 -29.5t162.5 41q58 28 103.5 75t68.5 106q23 61 23 112v172q0 52 -23 113q-44 110 -148 169t-225.5 50t-214.5 -84q-82 -66 -123 -157t-38 -189z" />
<glyph unicode="A" horiz-adv-x="1427" d="M29 37l651 1284q9 18 31 18q19 0 28 -18l654 -1284q4 -8 4 -16q-1 -9 -7 -19q-11 -16 -26 -16h-2q-17 1 -29 18l-182 363h-881l-182 -363q-12 -17 -29 -18h-2q-16 0 -26 16q-6 9 -6 18q0 8 4 17zM301 428h817l-407 811z" />
<glyph unicode="B" horiz-adv-x="1406" d="M188 37v1229q0 15 11 26t26 11h496q58 0 118 -8t129 -31t121.5 -59t87.5 -97.5t35 -140.5q0 -98 -53 -168t-151 -101q138 -28 220.5 -109.5t82.5 -217.5q0 -84 -30.5 -150t-79.5 -106.5t-118.5 -67t-140.5 -37t-151 -10.5h-566q-15 0 -26 11t-11 26zM258 61h533 q70 0 130 8t120 29t102.5 54.5t69 89.5t26.5 129q0 97 -52.5 161.5t-136 91.5t-194.5 27h-108h-490v-590zM258 717h490q83 0 151 13t124 40.5t87 77.5t31 119q0 63 -31 113t-76.5 79t-105 48t-110 26t-97.5 8h-463v-524z" />
<glyph unicode="C" horiz-adv-x="1366" d="M109 672q6 258 156.5 435.5t393.5 215.5q70 9 133 9q110 0 204 -28q146 -44 274 -178q15 -17 8 -34t-24 -19t-33 12q-80 87 -167 130t-179 48q-26 1 -53 1q-71 0 -152 -9q-222 -35 -356 -188t-140 -397v-17q0 -102 32 -196q35 -102 96.5 -180t147.5 -134q88 -57 184 -81 q65 -16 134 -16q34 0 70 4q108 12 211 63q115 58 192 157q14 19 33 16q20 -2 26 -18q2 -6 2 -13q0 -12 -8 -24q-80 -113 -217 -180q-113 -57 -233 -70q-40 -4 -78 -4q-78 -1 -150 17q-107 26 -202.5 88t-164 149t-106.5 201q-34 104 -34 216v24z" />
<glyph unicode="D" horiz-adv-x="1345" d="M109 53v1198q0 22 16 37t39 15h475q145 0 262.5 -56t190 -147.5t111.5 -208.5t39 -239.5t-39 -239.5t-111.5 -208.5t-190 -147.5t-262.5 -56h-475q-23 0 -39 15.5t-16 37.5zM176 63h463q104 0 192.5 33t150.5 89.5t106 132t64.5 160t20.5 174.5t-20.5 174.5t-64.5 160 t-106 132t-150.5 89.5t-192.5 33h-463v-1178z" />
<glyph unicode="E" horiz-adv-x="1308" d="M188 55v1194q0 22 16 38t40 16h919q19 1 27 -15q4 -8 4 -16t-4 -16q-8 -16 -29 -15h-905v-565h864q20 0 28.5 -15.5t0 -31t-28.5 -15.5h-864v-548h905q21 0 29 -16q4 -8 4 -16q0 -10 -4 -18q-8 -16 -29 -16h-917q-24 0 -40 16t-16 39z" />
<glyph unicode="F" horiz-adv-x="1263" d="M193 18v1231q0 22 15 38t36 16h895q20 1 29 -15q5 -8 5 -16q-1 -8 -5 -16q-8 -16 -29 -15h-881v-620h840q20 0 28.5 -15t0 -30t-28.5 -15h-840v-541q0 -21 -16 -30q-8 -5 -17 -5q-7 1 -15 5q-16 8 -17 28z" />
<glyph unicode="G" horiz-adv-x="1443" d="M100 662q5 157 73.5 297t192 237.5t277.5 122.5q53 8 107 8q107 0 215 -31q163 -48 264 -159q16 -18 9.5 -37t-24 -22t-34.5 12q-90 100 -237 142q-95 27 -188 27q-51 0 -102 -8q-208 -33 -343.5 -204t-143.5 -388v-15q0 -117 43 -224q46 -113 125 -193.5t186.5 -129 t224.5 -50.5h9q134 0 258 57q128 59 202 168v342h-436q-18 0 -26 15.5t0 31t26 15.5h461q37 0 37 -39v-365q0 -33 -14 -47q-89 -118 -228 -183q-136 -62 -282 -62h-9q-130 1 -249.5 54t-207.5 142.5t-139 216.5q-47 118 -47 248v21z" />
<glyph unicode="H" horiz-adv-x="1398" d="M184 33v1233q0 24 17 34q8 5 17 5l17 -5q17 -10 17 -34v-611h889v611q-1 24 17 34q9 5 17.5 5t17.5 -5q17 -10 17 -34v-1233q0 -22 -17 -31q-8 -4 -17 -4q-10 0 -18 4q-18 9 -17 31v561l-889 2v-563q0 -22 -17 -31q-8 -4 -17 -4l-17 4q-17 9 -17 31z" />
<glyph unicode="I" horiz-adv-x="450" d="M188 35v1243q0 24 18 34q9 5 19 5l19 -5q18 -10 18 -34v-1243q0 -22 -18 -31q-9 -4 -19 -4l-19 4q-18 9 -18 31z" />
<glyph unicode="J" horiz-adv-x="1185" d="M12 391q0 19 17 29t34.5 2.5t18.5 -31.5q5 -87 51.5 -166.5t122.5 -124.5q69 -41 150 -54q42 -8 83 -8q36 0 71 6q75 12 145 47t121.5 86t82 119.5t29.5 143.5v797h-463q-22 0 -31 17t0 34t31 17h492q12 0 21 -10.5t11 -24.5v-830q1 -88 -34 -168.5t-93.5 -139.5 t-138 -99.5t-164.5 -54.5q-40 -7 -82 -7q-46 0 -94 8q-91 16 -170 64q-94 58 -150 151t-61 197z" />
<glyph unicode="K" horiz-adv-x="1284" d="M186 25v1257q0 14 11 24.5t24 10.5q15 0 25 -10.5t10 -24.5v-766l879 793q12 10 25 10q6 1 12 -1q20 -6 25 -23t-9 -33l-610 -541l645 -674q12 -11 12 -24q1 -5 -1 -9q-6 -18 -26 -22q-4 -1 -7 -1q-14 0 -27 11l-646 676l-272 -242v-411q0 -14 -10 -23.5t-25 -9.5 q-14 0 -24.5 10t-10.5 23z" />
<glyph unicode="L" horiz-adv-x="1179" d="M190 39v1239q0 24 18 34q9 5 17 5l17 -5q18 -10 18 -34v-1215h860q22 1 31 -15q4 -8 4 -16q-1 -8 -5 -16q-10 -16 -30 -16h-893q-37 0 -37 39z" />
<glyph unicode="M" horiz-adv-x="1642" d="M188 33v1239q0 30 26 36q4 1 8 1q20 0 32 -21l569 -887l566 887q14 21 34 21q4 -1 8 -1q25 -6 25 -36v-1239q0 -21 -18 -31q-9 -5 -17 -5l-17 4q-18 9 -18 32v1128l-528 -829q-12 -23 -36 -23t-36 23l-528 825v-1124q0 -23 -18 -32q-9 -4 -17 -4l-17 5q-18 10 -18 31z " />
<glyph unicode="N" horiz-adv-x="1406" d="M186 37v1231q0 37 25 43q4 1 8 1q20 0 39 -24l889 -1161v1147q-1 24 17 34q9 5 18 5l18 -5q18 -10 17 -34v-1233q-1 -23 -13 -33q-8 -6 -18 -6q-5 0 -11 2q-17 6 -30 21l-891 1161v-1149q0 -23 -17 -33q-8 -5 -17 -4l-17 4q-17 10 -17 33z" />
<glyph unicode="O" horiz-adv-x="1525" d="M111 674q5 160 68.5 297t183 232t276.5 120q56 8 111 7.5t110 -7.5q239 -38 393 -222.5t160 -426.5v-21q0 -133 -47 -255q-51 -130 -140 -222t-210.5 -146.5t-253.5 -54.5q-131 0 -252 54.5t-210 146.5t-141 222q-48 121 -48 255v21zM180 672v-20q0 -118 42 -227 q46 -118 126 -202t188.5 -134t225.5 -50q118 0 227 50t189 134t126 202q43 109 42 227v20q-4 143 -66.5 268t-175 210t-254.5 107q-50 8 -100.5 7.5t-100.5 -7.5q-141 -22 -247.5 -107.5t-162 -209t-59.5 -268.5z" />
<glyph unicode="P" horiz-adv-x="1310" d="M188 27v1243q0 15 10.5 25t24.5 10h465q125 0 226.5 -40t165 -106.5t97 -148.5t33.5 -170q0 -91 -32.5 -168.5t-95.5 -137.5t-163.5 -94t-228.5 -34h-434v-377q0 -21 -17 -30q-9 -5 -17 -5l-17 4q-17 8 -17 29zM256 469h434q93 0 169.5 21t128.5 56.5t88 83.5 q34 48 50 101q15 50 15 102v7q-1 76 -32.5 147.5t-88 128t-142.5 91t-188 34.5h-434v-772z" />
<glyph unicode="Q" horiz-adv-x="1542" d="M109 674q5 160 68 297t182.5 232t277.5 120q55 7 110 7t111 -7q239 -38 392 -222.5t159 -426.5v-23q0 -124 -40 -237q-44 -123 -128 -217l148 -154q16 -17 10.5 -35.5t-22 -22t-34.5 10.5l-147 154q-87 -84 -200 -129.5t-236 -45.5q-132 0 -253.5 54.5t-210.5 146.5 t-140 222q-47 122 -47 255v21zM176 672v-20q0 -118 42 -227q47 -118 126.5 -202t188.5 -134t227 -50q109 0 210 42.5t181 119.5l-152 155q-16 16 -10.5 34t22 21.5t33.5 -12.5l150 -153q147 177 147 408v18q-4 143 -66 268t-174.5 210t-254.5 107q-48 7 -98 7t-101 -7 q-141 -22 -248 -107.5t-163 -209t-60 -268.5z" />
<glyph unicode="R" horiz-adv-x="1345" d="M188 27v1243q0 15 10 25t25 10h516q126 0 227 -34t165 -92.5t97.5 -135t33.5 -164.5q0 -170 -114 -276.5t-333 -123.5l424 -436q16 -17 11 -35t-21 -22q-3 -1 -6 -1q-13 0 -27 11l-461 485h-479v-452q0 -21 -17 -30t-34 -0.5t-17 28.5zM256 541h485q115 0 204 26.5 t143 72.5q54 48 80 108q25 56 24 121v10q-2 156 -124 259t-327 103h-485v-700z" />
<glyph unicode="S" horiz-adv-x="1323" d="M70 274q-2 6 -2 11q0 12 9 21q13 13 30.5 9t23.5 -24q17 -60 65.5 -107.5t113.5 -75.5t128 -43.5t127 -21.5q47 -6 97 -6q54 0 109 6.5t114.5 20.5t111 39.5t92.5 59.5t65 85t24 112q0 75 -37 126t-99.5 76.5t-144 39.5t-171 21t-179 14.5t-171 26.5t-144 52t-99.5 95 t-37 150q0 73 33 133t89 99.5t117.5 65.5t131.5 41q94 17 172 17q83 0 161 -11t160.5 -37.5t145 -80t90.5 -129.5q9 -23 -2.5 -36.5t-29.5 -10t-25 23.5q-79 219 -498 219q-8 0 -24.5 -1t-24.5 -1q-60 -4 -120 -18t-121 -39.5t-107.5 -68.5t-65.5 -99q-14 -28 -14 -70 q0 -75 37 -126t99.5 -77t143.5 -40.5t170.5 -21.5t179.5 -15.5t171 -27t143.5 -50.5t99.5 -92t37 -146q0 -87 -37.5 -155t-96 -110t-137.5 -69t-155.5 -37.5t-156.5 -10.5q-69 0 -136 7.5t-143 28t-136.5 52t-109 85t-67.5 121.5z" />
<glyph unicode="T" horiz-adv-x="1206" d="M0 1258q-5 8 -4.5 16t4.5 16q10 16 33 15h1128q23 1 33 -15q5 -8 4.5 -16t-4.5 -16q-10 -16 -33 -15h-530l2 -1212q0 -19 -11.5 -29t-25.5 -10t-24.5 10t-10.5 29v1212h-528q-23 -1 -33 15z" />
<glyph unicode="U" horiz-adv-x="1554" d="M188 573v715q0 20 16 28q8 4 17 5l17 -5q16 -9 16 -30v-713q0 -125 45 -226.5t119 -163.5t168 -96t192.5 -34t192.5 34t168 96t119 163.5t45 226.5v713q1 21 17 30q8 5 17 5q8 -1 16 -5q17 -8 17 -28v-715q0 -141 -51 -255.5t-134 -185t-189 -108.5t-217 -38t-217 38 t-189 108.5t-134 185t-51 255.5z" />
<glyph unicode="V" horiz-adv-x="1400" d="M41 1262q-4 8 -4 15q0 11 9 21q12 13 29 13q3 -1 6 -1q21 -2 30 -24l596 -1182l583 1180q8 21 29 25q21 3 35 -11q7 -8 7 -18q0 -9 -5 -20l-621 -1254q-9 -19 -28 -20h-2q-18 0 -29 18z" />
<glyph unicode="W" horiz-adv-x="2396" d="M57 1278q-4 8 -4 16q0 12 8 20q12 14 28 13h4q19 -2 28 -22l526 -1201l516 1045q9 21 34.5 22t37.5 -20l516 -1047l524 1201q9 20 29 22h4q17 1 29 -13q8 -9 8 -20q0 -7 -4 -16q-53 -120 -252.5 -571.5t-306.5 -698.5q-9 -21 -32 -21t-34 21l-518 1057l-518 -1057 q-9 -21 -33 -21t-33 21q-8 18 -557 1270z" />
<glyph unicode="X" horiz-adv-x="1314" d="M61 8q-1 4 -1 8q0 14 12 31l540 619l-522 600q-16 17 -10 36q6 18 24 20h4q16 0 31 -15l518 -596l517 596q13 15 28 15h6q19 -4 24.5 -21t-7.5 -37l-527 -598l543 -619q12 -15 12 -28q0 -5 -2 -11q-6 -18 -24 -19.5t-37 15.5l-533 617l-534 -617q-15 -16 -32 -16h-5 q-20 3 -25 20z" />
<glyph unicode="Y" horiz-adv-x="1263" d="M33 1293q0 9 5 15q5 8 14 12q5 2 10 2t11 -2q12 -3 23 -15l535 -717l532 717q15 17 33 17h4q21 -3 26 -20v-8q0 -14 -12 -30l-548 -734v-499q0 -19 -10.5 -29t-24.5 -10q-15 0 -25 10t-10 29v499l-551 734q-12 14 -12 29z" />
<glyph unicode="Z" horiz-adv-x="1257" d="M66 20q-2 6 -2 12q0 14 12 29l1032 1178h-973q-13 0 -23 10.5t-10 24.5q0 12 10 21.5t23 9.5h1036q30 0 38 -20.5t-11 -43.5l-1024 -1173h1006q15 0 24.5 -9.5t9.5 -23.5q0 -15 -9.5 -25t-24.5 -10h-1076q-30 0 -38 20z" />
<glyph unicode="[" horiz-adv-x="555" d="M164 -178v1556q0 20 13.5 33.5t33.5 13.5h229q22 0 32.5 -17.5t1.5 -34.5t-34 -17h-202v-1516h202q23 0 33 -16t0.5 -32.5t-33.5 -16.5h-229q-20 0 -33.5 13.5t-13.5 33.5z" />
<glyph unicode="\" horiz-adv-x="727" d="M1.5 1338.5q12.5 17.5 35 14t33.5 -29.5l622 -1473q11 -25 -1.5 -44t-33.5 -16.5t-32 30.5l-623 1476q-13 25 -0.5 42.5z" />
<glyph unicode="]" horiz-adv-x="612" d="M70 -177q9 17 32 17h205v1526h-205q-22 0 -31.5 16.5t-0.5 33t32 16.5h232q19 0 33 -14t14 -34v-1564q0 -20 -14 -33.5t-33 -13.5h-232q-22 0 -31.5 16.5t-0.5 33.5z" />
<glyph unicode="^" horiz-adv-x="788" d="M94.5 1073q-6.5 17 7.5 39l224 279q19 23 42 23t42 -23l223 -279q13 -18 5 -35.5t-24.5 -18t-31.5 16.5l-215 264l-209 -266q-16 -20 -36.5 -18.5t-27 18.5z" />
<glyph unicode="_" horiz-adv-x="888" d="M6 -114q-10 17 0.5 34t34.5 17h762q25 0 35 -17t-0.5 -34t-34.5 -17h-762q-25 0 -35 17z" />
<glyph unicode="`" horiz-adv-x="669" d="M210 1482.5q10 18.5 29 20t35 -13.5l158 -197q9 -13 2.5 -28t-21 -17.5t-30.5 13.5l-168 184q-15 20 -5 38.5z" />
<glyph unicode="a" d="M100 545q5 159 87 288t225 185q92 39 201 39h16q137 -3 245 -66q104 -69 150 -190v207q0 36 35 36q37 0 37 -36v-981q0 -37 -37 -37q-35 0 -35 37v206q-46 -121 -150 -190q-99 -57 -214 -67q-20 -2 -39 -2q-96 0 -195 38q-163 66 -247 208q-79 134 -79 304v21zM172 547 v-26q0 -241 180 -384q108 -83 252 -92h12q96 0 195 45q99 49 153 136t60 202v178q-6 115 -60 202t-153 136q-83 38 -182 41h-8q-131 0 -244 -67q-117 -69 -168 -193q-34 -77 -37 -178z" />
<glyph unicode="b" horiz-adv-x="1265" d="M166 23v1280q0 36 37 36q35 0 35 -36v-492q49 116 156 179.5t239 66.5h16q109 0 201 -39q143 -56 224.5 -184.5t86.5 -288.5v-21q0 -170 -79 -304q-84 -142 -246 -208q-99 -38 -195 -38q-19 0 -39 2q-116 10 -215 67q-107 71 -149 182v-202q0 -37 -35 -37q-37 0 -37 37z M238 428q6 -115 60 -202t153 -136q99 -45 194 -45h12q144 9 252 92q181 144 181 385v25q-3 101 -37 178q-51 124 -168 193q-114 67 -244 67h-8q-169 -6 -276.5 -112t-118.5 -267v-178z" />
<glyph unicode="c" horiz-adv-x="1087" d="M100 557q11 176 108 306.5t259 172.5q83 20 158 19q70 0 134 -16q133 -35 238 -156q9 -12 9 -21q2 -15 -6.5 -26.5t-24.5 -12.5q-20 -3 -33 13q-131 154 -327 154q-62 0 -130 -15q-111 -30 -189.5 -119.5t-107.5 -199.5q-17 -65 -17 -134q1 -48 9 -98q20 -121 94 -211 q61 -75 154 -116q94 -41 190 -42q2 0 4 -1q94 0 186 40q94 40 153 119q11 11 24 14q30 3 41 -30q0 -21 -8 -29q-96 -120 -248 -162q-75 -21 -150 -22q-77 0 -153 22q-151 44 -248 162q-120 145 -120 351q0 19 1 38z" />
<glyph unicode="d" horiz-adv-x="1263" d="M104 545q5 159 87 288t225 185q92 39 201 39h16q138 -3 246 -66q107 -71 149 -182v494q0 36 35 36q37 0 37 -36v-1276q0 -37 -37 -37q-35 0 -35 37v202q-44 -117 -149 -186q-99 -57 -215 -67q-20 -2 -39 -2q-96 0 -195 38q-163 66 -247 208q-79 134 -79 304v21zM176 547 v-26q0 -241 180 -384q108 -83 252 -92h12q96 0 195 45q99 49 153 136t60 202v178q-6 115 -60 202t-153 136q-83 38 -182 41h-8q-131 0 -244 -67q-117 -69 -168 -193q-34 -77 -37 -178z" />
<glyph unicode="e" horiz-adv-x="1267" d="M102 559q8 168 110 302t265 179q77 20 154 20t155 -20q173 -46 273.5 -182.5t103.5 -333.5v-7q0 -23 -12 -40q-14 -20 -51 -20h-922q16 -139 105 -244q63 -75 154.5 -115.5t193.5 -42.5h10q174 0 311 105q29 22 52 0t-5 -51q-67 -63 -162 -94q-89 -29 -187 -29h-13 q-125 2 -234.5 48t-177.5 134q-124 160 -124 358q0 16 1 33zM176 524h918q-3 170 -90 290t-240 161q-66 16 -129 16q-67 0 -133 -18q-150 -40 -237 -165.5t-89 -283.5z" />
<glyph unicode="f" horiz-adv-x="716" d="M40 971q-4 7 -4 14q0 8 6 16q9 15 30 15h161v12q0 69 14.5 125t46 102.5t88.5 72.5t136 26q118 0 191 -56q16 -11 16 -27q0 -22 -19 -29q-16 -6 -36 7q-44 39 -150 39q-64 0 -107.5 -19t-66.5 -55.5t-32 -80.5t-9 -105v-12h256q22 0 31 -15t0 -30t-31 -15h-256v-929 q0 -25 -18 -36q-9 -6 -18 -6l-18 5q-18 11 -18 37v929h-163q-21 0 -30 15z" />
<glyph unicode="g" horiz-adv-x="1265" d="M106 489v21q0 171 79 304q84 142 247 208q99 38 195 38q20 0 39 -2q116 -9 215 -67q107 -71 149 -182v203q0 37 35 37q37 0 37 -37v-979q0 -108 -38.5 -194t-107 -141.5t-158.5 -84.5t-196 -29q-123 0 -216 30t-173 105q-28 29 -5 51.5t52 0.5q88 -67 163 -92t179 -25 q86 0 162 23.5t136 69t95 119t35 167.5v190q-49 -116 -156 -179.5t-239 -66.5h-16q-109 0 -201 39q-143 56 -225 185t-87 288zM178 487q3 -101 37 -178q51 -124 168 -193q114 -67 244 -67h8q169 6 276.5 112t118.5 267v178q-6 115 -60 202t-153 136q-99 45 -195 45h-12 q-144 -9 -252 -92q-180 -143 -180 -384v-26z" />
<glyph unicode="h" horiz-adv-x="1320" d="M168 25v1280q0 23 18 31q8 4 17 4l19 -5q18 -10 18 -32v-576q34 123 126 206t209 114q57 17 114 17q11 0 23 -1q70 -4 135 -21.5t122 -58t99 -92.5t66.5 -125.5t24.5 -157.5v-583q0 -37 -35 -37q-37 0 -37 37v583q0 97 -42.5 179t-111.5 130t-157 68q-38 9 -76 9 q-50 0 -102 -15q-156 -39 -254.5 -171t-103.5 -296v-487q0 -37 -35 -37q-37 0 -37 37z" />
<glyph unicode="i" horiz-adv-x="403" d="M166 1182v114q0 21 19 30q10 4 19 4l19 -4q19 -9 19 -30v-114q0 -21 -19 -30t-38 0t-19 30zM168 16v996q0 22 18 32q9 5 18 5l18 -4q18 -9 18 -31v-998q0 -22 -18 -32q-9 -5 -18 -5l-18 5q-18 10 -18 32z" />
<glyph unicode="j" horiz-adv-x="428" d="M9 -352q3 20 24 28q31 17 54.5 35t40 38t28 38t18.5 43t10.5 44t4.5 50t1 52t-1 58.5t-1 61.5v901q0 14 10 24.5t27 10.5q13 0 24 -11t11 -24v-901v-45q1 -34 1 -57q0 -11 -1 -20q0 -26 -3.5 -70.5t-11 -70t-22 -62t-36 -61t-54.5 -52t-76 -49.5q-8 -3 -14 -3 q-12 0 -22 9q-13 12 -13 27q0 3 1 6zM186 1182v114q0 21 19 30q9 4 19 4l19 -4q19 -9 19 -30v-114q0 -21 -19 -30q-9 -4 -19 -4l-19 4q-19 9 -19 30z" />
<glyph unicode="k" horiz-adv-x="1009" d="M170 25v1282q0 24 18 33q9 4 17 4l19 -5q18 -10 18 -32v-826l626 559q20 17 41.5 12t25.5 -23t-13 -38l-445 -393l481 -549q9 -13 9 -26q0 -7 -3 -13q-8 -18 -25 -20h-3q-15 0 -29 12l-485 551l-180 -158v-370q0 -23 -18 -32q-9 -4 -18 -4l-18 5q-18 10 -18 31z" />
<glyph unicode="l" horiz-adv-x="401" d="M168 16v1287q0 14 10 24t27 10q14 0 24.5 -10.5t10.5 -23.5v-1287q0 -13 -10.5 -23.5t-24.5 -10.5q-17 0 -27 10t-10 24z" />
<glyph unicode="m" horiz-adv-x="2240" d="M168 23v989q0 14 11 24.5t24 10.5q17 0 27 -10.5t10 -24.5v-303q36 129 128 210t210 113q58 15 119 16q35 0 71 -6q98 -14 180 -63q76 -47 126 -117t67 -184q76 284 352 354q53 15 107 15q12 -1 26 -1q68 -4 134 -21t123.5 -55.5t101 -88.5t69 -119t25.5 -148v-591 q0 -37 -37 -37q-35 0 -35 37v585q-2 123 -73 216.5t-185 131.5q-63 21 -129 21q-54 0 -109 -14q-155 -39 -253.5 -171.5t-98.5 -295.5v-473q0 -37 -37 -37t-37 37v548q0 107 -44.5 201t-129.5 146q-69 41 -153 53q-32 5 -62 5q-51 0 -100 -13q-156 -39 -256 -172t-100 -295 v-473q0 -23 -18 -33q-9 -5 -18 -4l-18 4q-18 10 -18 33z" />
<glyph unicode="n" horiz-adv-x="1320" d="M168 23v989q0 14 10 24.5t27 10.5q35 0 35 -37v-283q34 123 126 206t209 114q57 17 114 17q11 0 23 -1q70 -4 135 -21.5t122 -58t99 -92.5t66.5 -125.5t24.5 -157.5v-585q0 -37 -35 -37q-37 0 -37 37v585q0 97 -42.5 179t-111.5 130t-157 68q-38 9 -76 9q-50 0 -102 -15 q-156 -39 -254.5 -171t-103.5 -296v-489q0 -37 -35 -37q-37 0 -37 37z" />
<glyph unicode="o" d="M100 559q14 170 114 303.5t261 177.5q77 20 154 20t155 -20q161 -45 262 -178.5t115 -302.5q1 -19 0 -37q0 -205 -123 -354q-75 -89 -180 -135.5t-227 -46.5t-228 46.5t-180 135.5q-124 150 -124 354q0 18 1 37zM184 424q22 -120 97 -211q63 -75 155 -116.5t195 -41.5 q104 0 197.5 41.5t156.5 116.5q76 91 97 211q8 49 8 96q0 68 -18 134q-31 110 -113 198t-197 119q-70 17 -135 17t-127 -17q-115 -30 -196.5 -118.5t-111.5 -198.5q-17 -64 -17 -131q0 -49 9 -99z" />
<glyph unicode="p" horiz-adv-x="1269" d="M168 -369v1381q0 37 37 37q35 0 35 -37v-203q42 111 149 182q99 58 215 67q19 2 39 2q96 0 195 -38q162 -66 246 -208q79 -133 79 -304v-21q-5 -160 -86.5 -288.5t-224.5 -184.5q-92 -39 -201 -39h-16q-132 3 -239 66.5t-156 179.5v-592q0 -37 -35 -37q-37 0 -37 37z M240 428q11 -161 118.5 -267t276.5 -112h8q130 0 244 67q117 69 168 193q34 77 37 178v25q0 241 -181 385q-108 83 -252 92h-12q-95 0 -194 -45q-99 -49 -153 -136t-60 -202v-178z" />
<glyph unicode="q" horiz-adv-x="1271" d="M109 489v21q0 171 79 304q84 142 246 208q99 38 195 38q20 0 39 -2q116 -9 215 -67q107 -71 149 -182v203q0 37 35 37q37 0 37 -37v-1381q0 -37 -37 -37q-35 0 -35 37v592q-49 -116 -156 -179.5t-239 -66.5h-16q-109 0 -201 39q-143 56 -224.5 184.5t-86.5 288.5z M180 487q3 -101 37 -178q51 -124 168 -193q114 -67 244 -67h8q169 6 276.5 112t118.5 267v178q-6 115 -60 202t-153 136q-99 45 -195 45h-12q-144 -9 -252 -92q-180 -143 -180 -384v-26z" />
<glyph unicode="r" horiz-adv-x="690" d="M170 33v979q0 14 10 24.5t27 10.5q13 0 24 -10.5t11 -24.5v-228q34 116 138 189.5t232 73.5q37 0 37 -35t-37 -35q-76 0 -138.5 -25.5t-105 -69t-71.5 -103.5t-42 -128.5t-13 -144.5v-473q0 -17 -10.5 -27t-24.5 -10q-37 0 -37 37z" />
<glyph unicode="s" horiz-adv-x="1089" d="M78 225q-3 9 -3 16q1 14 11 23q16 14 35 7t22 -33q13 -61 76.5 -104.5t147.5 -63t178 -19.5q53 0 113.5 11.5t124 37t105.5 75t42 114.5q0 73 -46.5 116t-120.5 58.5t-163.5 23t-179 18t-163.5 33t-120.5 78.5t-46.5 146q0 93 70 163.5t167 103t197 32.5q363 0 443 -209 q7 -27 -7.5 -42t-34 -10.5t-26.5 25.5q-62 168 -375 168q-59 0 -119.5 -13t-117 -39t-92 -72.5t-35.5 -106.5q0 -70 46.5 -111t120.5 -56.5t163.5 -23t179.5 -18.5t164 -35t120.5 -81.5t46.5 -147.5q0 -70 -32 -125.5t-80.5 -88t-112 -53.5t-120 -28.5t-111.5 -7.5 q-56 0 -110 5.5t-115.5 21.5t-109 41.5t-84.5 69.5t-48 101z" />
<glyph unicode="t" horiz-adv-x="788" d="M38 994q-5 8 -5.5 16t5.5 16q10 16 36 16h190v263q0 21 18 29q8 4 16 5l18 -5q18 -9 18 -29v-263h284q25 0 35.5 -16.5t0 -32.5t-35.5 -16h-284v-629q0 -50 4 -88.5t17 -80t36 -68.5t63 -44.5t95 -17.5q67 0 123 31q21 10 38 0q16 -9 16 -26q0 -21 -28 -36 q-64 -34 -149 -34q-285 0 -285 364v629h-190q-26 1 -36 17z" />
<glyph unicode="u" horiz-adv-x="1323" d="M164 428v588q0 37 35 37q37 0 37 -37v-588q0 -126 72 -223q70 -97 184 -137q64 -23 130 -23q51 0 103 14q156 39 254.5 171t103.5 296v490q0 37 35 37q37 0 37 -37v-989q0 -14 -10 -24.5t-27 -10.5q-35 0 -35 37v295q-34 -124 -129 -213.5t-211 -120.5q-49 -13 -99 -13 q-18 0 -36 2q-68 6 -132.5 24t-121 57.5t-99 90.5t-67 122.5t-24.5 154.5z" />
<glyph unicode="v" horiz-adv-x="1136" d="M39 1008q-4 8 -4 15q0 11 9 21q12 13 29 13q3 -1 6 -1q21 -2 30 -24l464 -921l461 915q8 21 27.5 24.5t31.5 -10.5q6 -8 6 -18q0 -9 -5 -21l-490 -989q-9 -19 -28 -20h-2q-18 0 -29 18z" />
<glyph unicode="w" horiz-adv-x="1925" d="M61 1010q-2 8 -2 15q-1 15 9 25q12 12 28 11q4 -1 8 -1q20 -4 27 -22l408 -927l393 804q10 23 34 23t35 -23l400 -806l397 919q5 19 26 23q21 3 36 -11q9 -8 9 -20q0 -9 -5 -19l-432 -991q-9 -19 -33 -19t-33 19l-395 819l-404 -819q-9 -19 -34 -19t-35 19 q-76 187 -142 338t-148.5 333.5t-146.5 328.5z" />
<glyph unicode="x" horiz-adv-x="1064" d="M48 12q-1 3 0 7q0 17 15 36l404 471l-391 461q-19 18 -13.5 39t25 24.5t39.5 -12.5l389 -467l418 471q11 15 27 15q3 -1 6 -1q20 -4 27.5 -21t-5.5 -38l-420 -471l437 -481q11 -14 11 -27q-1 -8 -3 -14q-8 -20 -28 -20h-1q-19 0 -37 18l-432 477l-401 -475 q-19 -20 -41 -16t-26 24z" />
<glyph unicode="y" horiz-adv-x="1144" d="M43 1001q-1 6 -1 11q0 13 8 23q12 14 31 12.5t32 -21.5l465 -920l454 920q10 27 35 27q5 0 9 -1q26 -5 30 -27q1 -4 1 -7q0 -9 -5 -17l-694 -1372q-13 -26 -32 -30q-4 -1 -8 -1q-14 0 -24 14q-11 16 -2 40l190 385z" />
<glyph unicode="z" horiz-adv-x="1083" d="M70 24q-2 7 -3 13q0 16 15 29l805 907l-752 -2q-25 0 -35 17.5t0.5 35.5t34.5 18h821q29 0 40 -24.5t-9 -46.5l-815 -905l801 4q22 0 31 -18q4 -9 4 -17q0 -9 -4 -17q-10 -18 -31 -18h-864q-31 0 -39 24z" />
<glyph unicode="{" horiz-adv-x="534" d="M59.5 510q-9.5 18 0 36.5t32.5 18.5q63 4 94 35q22 22 33 62.5t12.5 68.5t1.5 76v14q0 15 -1 45t-1 45q0 54 -1.5 110t11 109.5t34.5 95.5t69 67.5t115 25.5q23 0 32.5 -16.5t0 -33t-32.5 -16.5q-62 0 -109 -47q-20 -22 -32 -52t-14.5 -71.5t-3 -67t3 -78t3.5 -65.5v-34 v-38t-0.5 -37.5t-2.5 -39.5t-5 -37t-8 -38.5t-12 -34t-16 -33t-22 -27.5t-28 -25q26 -19 37 -34q14 -17 24 -36.5t16 -45t10 -43t5.5 -49.5t2 -44.5t0 -49t-0.5 -42.5q-5 -134 0 -182q3 -21 4 -26.5t5 -24.5t7.5 -28.5t10.5 -23t16 -22.5q39 -39 109 -39q23 0 32.5 -19 t0 -38t-32.5 -19q-112 0 -168 66q-12 15 -22 33.5t-16 35t-10.5 42t-7 40.5t-3.5 45t-1 41v43.5v38.5q0 15 1 44t1 45v14q0 48 -1.5 76t-12.5 68.5t-33 62.5q-32 35 -94 35q-23 0 -32.5 18z" />
<glyph unicode="|" horiz-adv-x="315" d="M119 -176v1462q0 17 10.5 27t24.5 10q36 0 36 -37v-1462q0 -35 -36 -35q-14 0 -24.5 9.5t-10.5 25.5z" />
<glyph unicode="}" horiz-adv-x="552" d="M53.5 -177q9.5 19 32.5 19q70 0 109 39q14 15 23.5 40t12 39t7.5 46q5 48 0 182q0 6 -0.5 43t0 49.5t2 45.5t5.5 51t10 44t16 46t24 37q13 18 37 35q-36 25 -58.5 67t-29 87t-8.5 94.5t2 89.5q0 13 3 58.5t3 76.5t-3 72.5t-14.5 74.5t-31.5 55q-39 39 -109 39 q-23 0 -32.5 18.5t0 37t32.5 18.5q67 0 113.5 -26t68.5 -68.5t34.5 -96.5t11.5 -110.5t-1 -110.5q-1 -15 -2 -45t-2 -45q0 -168 47 -215q34 -31 97 -35q23 0 32.5 -18.5t0 -36.5t-32.5 -18q-62 0 -97 -35q-47 -47 -47 -221q1 -15 2 -46.5t2 -47.5q0 -5 0.5 -43.5t0 -51 t-2 -47t-5.5 -52t-10.5 -44t-17 -46t-24.5 -36.5q-55 -65 -168 -65q-23 0 -32.5 18.5t0 37.5z" />
<glyph unicode="~" horiz-adv-x="1056" d="M53 492q17 97 64 147.5t116.5 54t143.5 -19t162 -68.5t186 -71q178 -48 211 129q5 20 22 25.5t31.5 -5t11.5 -31.5q-17 -121 -94.5 -167.5t-195.5 -16.5q-80 20 -199 76q-8 3 -24 11q-30 14 -46.5 21.5t-48.5 20t-52 17.5t-49.5 10.5t-48.5 2t-41.5 -11.5t-37 -25.5 t-26.5 -45.5t-17 -66q-2 -22 -20 -28.5t-34.5 6t-13.5 35.5z" />
<glyph unicode="&#xa1;" horiz-adv-x="325" d="M123 -225v954q0 21 18 30.5t36 0.5t18 -31v-954q0 -19 -18 -27t-36 0t-18 27zM123 915v119q0 21 18 30t36 0t18 -30v-119q0 -21 -18 -30t-36 0t-18 30z" />
<glyph unicode="&#xa2;" horiz-adv-x="1044" d="M57 557q12 169 110.5 301.5t256.5 177.5q64 15 108 17v151q0 22 16 31.5t32 0.5t16 -32v-151q102 -8 192.5 -51.5t155.5 -118.5q8 -11 8 -21q2 -15 -6 -26.5t-24 -12.5q-20 -3 -33 13q-54 64 -130.5 100.5t-162.5 42.5v-924q95 3 179 43t143 115q12 11 24 14q30 3 41 -30 q0 -21 -8 -29q-68 -86 -167.5 -131.5t-211.5 -48.5v-164q0 -21 -16 -30.5t-32 -0.5t-16 31v164q-106 9 -199 54.5t-157 125.5q-131 158 -119 389zM137 423q20 -120 94 -210q55 -68 133.5 -108t167.5 -48v922q-42 -3 -86 -12q-111 -30 -190 -118t-109 -197t-10 -229z" />
<glyph unicode="&#xa5;" horiz-adv-x="1263" d="M33.5 1288q-1.5 12 4 20t14.5 12t21 0.5t23 -15.5l535 -717l532 717q17 19 37.5 16.5t25 -19.5t-11.5 -38l-505 -676h266q21 0 29.5 -15.5t-0.5 -31t-29 -15.5h-309v-182h309q21 0 29.5 -15t-0.5 -30.5t-29 -15.5h-309v-252q0 -19 -10.5 -29t-24.5 -10q-15 0 -25 10 t-10 29v252h-311q-20 2 -28.5 17t0 29.5t28.5 14.5h311v182h-311q-20 2 -28.5 17.5t0 30t28.5 14.5h268l-508 676q-10 12 -11.5 24z" />
<glyph unicode="&#xa8;" horiz-adv-x="716" d="M117 1430q0 23 16.5 38t38.5 15q20 0 36.5 -15.5t16.5 -37.5q0 -27 -16 -41.5t-37 -14.5q-22 0 -38.5 16t-16.5 40zM463 1430q0 23 16 38t37 15t38 -15.5t17 -37.5q0 -27 -16.5 -41.5t-38.5 -14.5q-21 0 -37 16t-16 40z" />
<glyph unicode="&#xa9;" horiz-adv-x="935" d="M61 653q0 164 117 281t281 117q165 0 281 -116.5t116 -281.5t-116 -281t-281 -116q-164 0 -281 116.5t-117 280.5zM133 653q0 -135 96 -230t230 -95q135 0 230 95t95 230t-95 230.5t-230 95.5q-134 0 -230 -95.5t-96 -230.5zM232 601.5q-13 67.5 6 129.5q22 73 77 119 q27 24 64 37q65 26 138 9.5t120 -69.5q7 -7 10 -18q3 -34 -31 -43q-17 -3 -32 12q-42 46 -108.5 50.5t-115.5 -33.5q-56 -47 -61.5 -128t43.5 -135q50 -58 133.5 -54t128.5 65q10 10 25 14q15 2 27.5 -6.5t13.5 -24.5q3 -14 -6 -26q-43 -60 -113.5 -82.5t-142 -4.5 t-119.5 72q-44 49 -57 116.5z" />
<glyph unicode="&#xab;" horiz-adv-x="827" d="M47 498q-38 35 4 73l367 355q10 10 22 10q14 0 24.5 -11t10.5 -24q0 -15 -12 -27l-352 -342l352 -339q12 -12 12 -27q0 -14 -9.5 -24.5t-25.5 -10.5q-15 0 -24 12zM367 498q-38 35 4 73l366 355q10 10 23 10q14 0 24.5 -11t10.5 -24q0 -14 -13 -27l-352 -342l352 -339 q13 -13 13 -27t-10.5 -24.5t-24.5 -10.5q-16 0 -25 12z" />
<glyph unicode="&#xad;" horiz-adv-x="841" d="M123.5 598q-9.5 18 1 35.5t33.5 17.5h446q23 0 32.5 -17.5t0 -35.5t-32.5 -18h-446q-25 0 -34.5 18z" />
<glyph unicode="&#xae;" horiz-adv-x="862" d="M31 641q0 164 116.5 280.5t280.5 116.5q165 0 281 -116t116 -281t-116 -281t-281 -116q-164 0 -280.5 116.5t-116.5 280.5zM102 641q0 -135 96 -230.5t230 -95.5q135 0 230.5 95.5t95.5 230.5t-95.5 230.5t-230.5 95.5q-134 0 -230 -95.5t-96 -230.5zM307 408v434 q-1 17 8.5 27t26.5 10q37 0 37 -37v-54q81 97 190 97q14 0 25.5 -10.5t11.5 -26.5q0 -14 -10 -24.5t-27 -10.5q-86 0 -138 -63.5t-52 -153.5v-188q0 -37 -37 -37q-35 0 -35 37z" />
<glyph unicode="&#xb0;" horiz-adv-x="399" d="M35 1231q0 61 43 103t106 42q62 0 105 -42t43 -103q0 -63 -43 -105.5t-105 -42.5q-63 0 -106 42.5t-43 105.5zM94 1231q0 -37 26.5 -62.5t63.5 -25.5q36 0 62 26t26 62q0 35 -26.5 60.5t-61.5 25.5q-37 0 -63.5 -25.5t-26.5 -60.5z" />
<glyph unicode="&#xb1;" horiz-adv-x="970" d="M82 33q0 14 10 24.5t23 10.5h739q13 0 23 -10.5t10 -24.5q0 -12 -10 -22.5t-23 -10.5h-739q-13 0 -23 10.5t-10 22.5zM85.5 638.5q-8.5 15.5 0.5 31.5t29 16h336v336q0 33 32 33q14 0 24.5 -10t10.5 -23v-336h336q19 0 28 -16t1.5 -31.5t-29.5 -15.5h-336v-340 q0 -13 -10.5 -23t-24.5 -10q-32 0 -32 33v340h-336q-21 0 -29.5 15.5z" />
<glyph unicode="&#xb4;" horiz-adv-x="489" d="M155 1185q0 9 5 17l157 197q14 17 35.5 13.5t29.5 -20t-5 -38.5l-168 -185q-9 -10 -19 -12.5t-17 1.5t-12.5 11t-5.5 16z" />
<glyph unicode="&#xb6;" horiz-adv-x="985" d="M49 1012q0 118 87.5 205.5t205.5 87.5h561q37 0 37 -37q0 -35 -37 -35h-104v-1423q0 -14 -9.5 -24.5t-25.5 -10.5q-17 0 -27 10.5t-10 24.5v1423h-367v-1423q0 -15 -9 -25t-25 -10q-17 0 -27 10.5t-10 24.5v913q-103 17 -171.5 99.5t-68.5 189.5z" />
<glyph unicode="&#xb7;" horiz-adv-x="249" d="M68 621q0 23 15 38t38 15t37 -15t14 -38t-14 -37.5t-37 -14.5t-38 14.5t-15 37.5z" />
<glyph unicode="&#xb8;" horiz-adv-x="622" d="M145 -191q9 15 25 15.5t29 -14.5q50 -78 151 -78q57 0 93 21t36 67q0 52 -57 74t-117 6l-26 32l36 117l60 -2l-33 -92q88 9 145.5 -29.5t57.5 -105.5q0 -73 -58 -112.5t-135 -39.5q-138 0 -205 109q-11 17 -2 32z" />
<glyph unicode="&#xbb;" horiz-adv-x="862" d="M57 162q0 13 13 26l352 340l-354 342q-11 18 -11 27q0 14 10 24.5t23 10.5q15 0 25 -10l366 -355q40 -37 4 -73l-368 -355q-12 -12 -27 -12q-13 0 -23 10.5t-10 24.5zM377 162q0 14 12 26l352 340l-354 342q-10 17 -10 27q0 14 10 24.5t23 10.5q14 0 24 -10l367 -355 q40 -37 4 -73l-369 -355q-12 -12 -26 -12q-13 0 -23 10.5t-10 24.5z" />
<glyph unicode="&#xbf;" horiz-adv-x="1189" d="M29 125q2 63 22.5 114.5t54 86t76.5 62.5t90 48.5t94 40t89.5 41t75 46.5t52 61.5t19.5 81.5v84q0 19 17 27t34 0t17 -27v-86q0 -54 -19.5 -97t-52 -72t-75 -53t-89.5 -43.5l-94 -39t-89.5 -44.5t-76 -55.5t-53.5 -75.5t-21 -102q-1 -74 31.5 -132t83.5 -93.5t119.5 -59 t134 -32.5t131.5 -9q388 0 471 232q7 19 24.5 22.5t29.5 -10t5 -37.5q-21 -65 -65 -115.5t-96.5 -80.5t-119 -49t-126.5 -26t-125 -7q-75 0 -151.5 13t-153 44t-135.5 75.5t-95 113.5t-34 153zM602 924v112q0 20 17 28.5t34 0t17 -28.5v-112q0 -20 -17 -28.5t-34 0t-17 28.5 z" />
<glyph unicode="&#xc0;" horiz-adv-x="1427" d="M29 37l651 1284q9 18 31 18q19 0 28 -18l654 -1284q9 -19 -2.5 -35.5t-28.5 -15.5t-29 18l-182 363h-881l-182 -363q-12 -17 -29 -18t-28 15.5t-2 35.5zM301 428h817l-407 811zM521 1640.5q10 18.5 29.5 20t35.5 -13.5l157 -197q9 -13 2.5 -28.5t-21 -17.5t-30.5 13 l-168 185q-15 20 -5 38.5z" />
<glyph unicode="&#xc1;" horiz-adv-x="1427" d="M29 37q-9 -19 2 -35.5t28 -15.5t29 18l182 363h881l182 -363q12 -17 29 -18t28.5 15.5t2.5 35.5l-654 1284q-9 18 -28 18q-22 0 -31 -18zM301 428l410 811l407 -811h-817zM687.5 1440q-4.5 14 2.5 28l158 197q14 17 35 13.5t29 -20t-5 -38.5l-168 -184q-14 -16 -30.5 -13 t-21 17z" />
<glyph unicode="&#xc2;" horiz-adv-x="1427" d="M29 37q-9 -19 2 -35.5t28 -15.5t29 18l182 363h881l182 -363q12 -17 29 -18t28.5 15.5t2.5 35.5l-654 1284q-9 18 -28 18q-22 0 -31 -18zM301 428l410 811l407 -811h-817zM489.5 1400q-1.5 17 18.5 36l166 157q40 32 74 0l176 -159q24 -22 10.5 -42.5t-41.5 -7.5 q-7 3 -14 9l-168 149l-164 -147q-17 -19 -36.5 -15.5t-21 20.5z" />
<glyph unicode="&#xc3;" horiz-adv-x="1427" d="M29 37q-9 -19 2 -35.5t28 -15.5t29 18l182 363h881l182 -363q12 -17 29 -18t28.5 15.5t2.5 35.5l-654 1284q-9 18 -28 18q-22 0 -31 -18zM301 428l410 811l407 -811h-817zM430.5 1445q-6.5 13 5.5 34q36 57 80 75.5t87.5 6t83.5 -32.5t83.5 -38.5t73.5 -14.5q41 3 67 59 q8 22 31 18q22 -4 22 -24q0 -11 -8 -23q-27 -55 -62 -76t-75 -13t-77 24.5t-82 36t-76 22.5q-35 3 -60 -7.5t-45 -47.5q-9 -14 -25.5 -13t-23 14z" />
<glyph unicode="&#xc4;" horiz-adv-x="1427" d="M29 37q-9 -19 2 -35.5t28 -15.5t29 18l182 363h881l182 -363q12 -17 29 -18t28.5 15.5t2.5 35.5l-654 1284q-9 18 -28 18q-22 0 -31 -18zM301 428l410 811l407 -811h-817zM485 1470q0 23 17 38.5t39 15.5q20 0 36.5 -16t16.5 -38q0 -27 -16 -41t-37 -14q-23 0 -39.5 15.5 t-16.5 39.5zM831 1470q0 23 16.5 38.5t37.5 15.5t38 -15.5t17 -38.5q0 -27 -16 -41t-39 -14q-21 0 -37.5 15.5t-16.5 39.5z" />
<glyph unicode="&#xc5;" horiz-adv-x="1427" d="M29 37q-9 -19 2 -35.5t28 -15.5t29 18l182 363h881l182 -363q12 -17 29 -18t28.5 15.5t2.5 35.5l-654 1284q-9 18 -28 18q-22 0 -31 -18zM301 428l410 811l407 -811h-817zM565 1540q0 61 43.5 103.5t106.5 42.5q62 0 104.5 -42.5t42.5 -103.5q0 -63 -42.5 -105 t-104.5 -42q-63 0 -106.5 42t-43.5 105zM625 1540q0 -37 26.5 -62.5t63.5 -25.5q36 0 62 26t26 62q0 35 -26.5 60.5t-61.5 25.5q-37 0 -63.5 -25.5t-26.5 -60.5z" />
<glyph unicode="&#xc6;" horiz-adv-x="2086" d="M60 -0.5q-6 16.5 8 37.5l970 1241q0 2 4 6q19 19 43 19h857q19 0 27 -15.5t-1 -31t-29 -15.5h-841v-565h800q20 0 28.5 -15.5t0 -31t-28.5 -15.5h-800v-548h841q20 0 28.5 -16.5t0 -33t-28.5 -16.5h-854q-24 0 -39.5 15.5t-15.5 39.5v312h-618l-289 -367 q-16 -20 -36.5 -18.5t-26.5 18zM463 428h567v731z" />
<glyph unicode="&#xc7;" horiz-adv-x="1366" d="M109 674q4 158 69.5 296.5t187.5 234t279 120.5q160 24 316.5 -26.5t261.5 -165.5q16 -18 9.5 -37t-24 -21.5t-34.5 12.5q-94 104 -234 147.5t-285 22.5q-211 -33 -343 -200t-138 -385q-3 -111 32 -213t96.5 -180t148 -134t183 -80.5t205 -12.5t210.5 63q115 58 192 157 q14 19 33 16.5t25.5 -19t-5.5 -36.5q-80 -113 -217 -180q-137 -70 -293 -73l-26 -80q88 9 145.5 -29.5t57.5 -106.5q0 -73 -58 -112t-135 -39q-139 0 -205 108q-11 17 -2 32t24.5 15.5t28.5 -14.5q50 -78 152 -78q57 0 93 21t36 67q0 52 -57 74t-117 6l-27 33l33 103 q-127 9 -242 65t-199.5 146t-132.5 216t-44 267z" />
<glyph unicode="&#xc8;" horiz-adv-x="1308" d="M188 55v1194q0 22 16 38t40 16h919q19 0 27 -15.5t-0.5 -31t-28.5 -15.5h-905v-565h864q20 0 28.5 -15.5t0 -31t-28.5 -15.5h-864v-548h905q20 0 28.5 -16.5t0 -33t-28.5 -16.5h-917q-24 0 -40 16t-16 39zM548 1633.5q10 18.5 29 20t35 -13.5l158 -196q9 -13 2.5 -28.5 t-21 -17.5t-30.5 13l-168 184q-15 20 -5 38.5z" />
<glyph unicode="&#xc9;" horiz-adv-x="1308" d="M188 55q0 -23 16 -39t40 -16h917q20 0 28.5 16.5t0 33t-28.5 16.5h-905v548h864q20 0 28.5 15.5t0 31t-28.5 15.5h-864v565h905q20 0 28.5 15.5t0.5 31t-27 15.5h-919q-24 0 -40 -16t-16 -38v-1194zM669 1429q0 9 5 17l157 196q14 17 35.5 13.5t29.5 -20t-5 -38.5 l-168 -184q-9 -10 -19 -12.5t-17 1.5t-12.5 11t-5.5 16z" />
<glyph unicode="&#xca;" horiz-adv-x="1308" d="M188 55q0 -23 16 -39t40 -16h917q20 0 28.5 16.5t0 33t-28.5 16.5h-905v548h864q20 0 28.5 15.5t0 31t-28.5 15.5h-864v565h905q20 0 28.5 15.5t0.5 31t-27 15.5h-919q-24 0 -40 -16t-16 -38v-1194zM481.5 1426q-1.5 17 18.5 36l166 158q22 17 38 17t35 -17l176 -160 q24 -22 10.5 -42.5t-41.5 -7.5q-7 3 -14 9l-168 150l-163 -148q-17 -19 -36.5 -15.5t-21 20.5z" />
<glyph unicode="&#xcb;" horiz-adv-x="1308" d="M188 55q0 -23 16 -39t40 -16h917q20 0 28.5 16.5t0 33t-28.5 16.5h-905v548h864q20 0 28.5 15.5t0 31t-28.5 15.5h-864v565h905q20 0 28.5 15.5t0.5 31t-27 15.5h-919q-24 0 -40 -16t-16 -38v-1194zM498 1477q0 23 16.5 38t38.5 15q20 0 36.5 -15.5t16.5 -37.5 q0 -27 -16 -41.5t-37 -14.5q-22 0 -38.5 16t-16.5 40zM844 1477q0 23 16 38t37 15t38 -15.5t17 -37.5q0 -27 -16.5 -41.5t-38.5 -14.5q-21 0 -37 16t-16 40z" />
<glyph unicode="&#xcc;" horiz-adv-x="450" d="M24 1640.5q10 18.5 29 20t35 -13.5l158 -197q9 -13 2.5 -28.5t-21 -17.5t-30.5 13l-168 185q-15 20 -5 38.5zM188 35v1243q0 24 18.5 34t37 0t18.5 -34v-1243q0 -22 -18.5 -31t-37 0t-18.5 31z" />
<glyph unicode="&#xcd;" horiz-adv-x="450" d="M188 35v1243q0 24 18.5 34t37 0t18.5 -34v-1243q0 -22 -18.5 -31t-37 0t-18.5 31zM190 1439q0 9 5 17l157 197q14 17 35.5 13.5t29.5 -20t-5 -38.5l-168 -185q-9 -10 -19 -12.5t-17 1.5t-12.5 11t-5.5 16z" />
<glyph unicode="&#xce;" horiz-adv-x="450" d="M8 1440q6 10 15 18l165 158q40 32 74 0l176 -160q24 -22 10.5 -42.5t-41.5 -7.5l-14 9l-168 150l-164 -148q-24 -26 -45 -12q-20 12 -8 35zM188 35v1243q0 24 18.5 34t37 0t18.5 -34v-1243q0 -22 -18.5 -31t-37 0t-18.5 31z" />
<glyph unicode="&#xcf;" horiz-adv-x="450" d="M-2 1470q0 23 16.5 38.5t38.5 15.5q20 0 36.5 -16t16.5 -38q0 -27 -16 -41t-37 -14q-22 0 -38.5 15.5t-16.5 39.5zM188 35v1243q0 24 18.5 34t37 0t18.5 -34v-1243q0 -22 -18.5 -31t-37 0t-18.5 31zM344 1470q0 23 16 38.5t37 15.5t38.5 -16t17.5 -38q0 -27 -16.5 -41 t-39.5 -14q-21 0 -37 15.5t-16 39.5z" />
<glyph unicode="&#xd0;" horiz-adv-x="1345" d="M-44.5 631q-9.5 15 1 30t33.5 15h119v575q0 22 16 37t39 15h475q145 0 262.5 -56t190 -147.5t111.5 -208.5t39 -239.5t-39 -239.5t-111.5 -208.5t-190 -147.5t-262.5 -56h-475q-23 0 -39 15.5t-16 37.5v563h-119q-25 0 -34.5 15zM176 63h463q104 0 192.5 33t150.5 89.5 t106 132t64.5 160t20.5 174.5t-20.5 174.5t-64.5 160t-106 132t-150.5 89.5t-192.5 33h-463v-565h215q23 0 32.5 -15t0 -30t-32.5 -15h-215v-553z" />
<glyph unicode="&#xd1;" horiz-adv-x="1406" d="M186 37q0 -23 17 -32.5t34 0t17 32.5v1149l891 -1161q13 -16 30 -21.5t29.5 4.5t12.5 33v1233q0 24 -17.5 34t-35 0t-17.5 -34v-1147l-889 1161q-22 29 -47 23t-25 -43v-1231zM465.5 1441q-6.5 13 5.5 34q31 48 67.5 68.5t70 17t72 -18t70.5 -32.5t67 -30.5t61 -9.5 q41 3 67 60q8 22 31 18q22 -4 22 -24q0 -11 -8 -23q-27 -55 -62.5 -76t-75 -13t-77 24.5t-82.5 36t-76 22.5q-35 3 -59.5 -7.5t-44.5 -47.5q-9 -14 -25.5 -13t-23 14z" />
<glyph unicode="&#xd2;" horiz-adv-x="1525" d="M111 674q5 160 68.5 297t183 232t276.5 120q111 15 221 0q239 -38 393 -222.5t160 -426.5q4 -145 -47 -275.5t-140 -222.5t-210.5 -146.5t-253.5 -54.5q-131 0 -252 54.5t-210 146.5t-141 222.5t-48 275.5zM180 672q-4 -129 42.5 -247t126 -202t188 -134t225.5 -50 q118 0 227 50t188.5 134t126 202t42.5 247q-4 143 -66.5 268t-175 210t-254.5 107q-101 15 -201 0q-141 -22 -247.5 -107.5t-162 -209t-59.5 -268.5zM581 1646.5q10 18.5 29 20t35 -13.5l158 -197q9 -13 2.5 -28.5t-21 -17.5t-30.5 13l-168 185q-15 20 -5 38.5z" />
<glyph unicode="&#xd3;" horiz-adv-x="1525" d="M111 674q-4 -145 48 -275.5t141 -222.5t210 -146.5t252 -54.5q132 0 253.5 54.5t210.5 146.5t140 222.5t47 275.5q-6 242 -160 426.5t-393 222.5q-111 15 -221 0q-157 -25 -276.5 -120t-183 -232t-68.5 -297zM180 672q4 145 59.5 268.5t162 209t247.5 107.5q100 15 201 0 q142 -22 254.5 -107t175 -210t66.5 -268q4 -129 -42.5 -247t-126 -202t-188.5 -134t-227 -50q-117 0 -225.5 50t-188 134t-126 202t-42.5 247zM751.5 1434q-4.5 14 2.5 28l157 197q14 17 35.5 13.5t29.5 -20t-5 -38.5l-168 -184q-14 -16 -30.5 -13t-21 17z" />
<glyph unicode="&#xd4;" horiz-adv-x="1525" d="M111 674q-4 -145 48 -275.5t141 -222.5t210 -146.5t252 -54.5q132 0 253.5 54.5t210.5 146.5t140 222.5t47 275.5q-6 242 -160 426.5t-393 222.5q-111 15 -221 0q-157 -25 -276.5 -120t-183 -232t-68.5 -297zM180 672q4 145 59.5 268.5t162 209t247.5 107.5q100 15 201 0 q142 -22 254.5 -107t175 -210t66.5 -268q4 -129 -42.5 -247t-126 -202t-188.5 -134t-227 -50q-117 0 -225.5 50t-188 134t-126 202t-42.5 247zM540.5 1430q-1.5 17 18.5 36l166 158q40 32 74 0l176 -160q24 -22 10.5 -42.5t-41.5 -7.5q-7 3 -14 9l-168 150l-164 -148 q-17 -19 -36.5 -15.5t-21 20.5z" />
<glyph unicode="&#xd5;" horiz-adv-x="1525" d="M111 674q-4 -145 48 -275.5t141 -222.5t210 -146.5t252 -54.5q132 0 253.5 54.5t210.5 146.5t140 222.5t47 275.5q-6 242 -160 426.5t-393 222.5q-111 15 -221 0q-157 -25 -276.5 -120t-183 -232t-68.5 -297zM180 672q4 145 59.5 268.5t162 209t247.5 107.5q100 15 201 0 q142 -22 254.5 -107t175 -210t66.5 -268q4 -129 -42.5 -247t-126 -202t-188.5 -134t-227 -50q-117 0 -225.5 50t-188 134t-126 202t-42.5 247zM510.5 1477.5q-6.5 12.5 5.5 33.5q36 57 80 75.5t87.5 6t83.5 -32.5t83.5 -38.5t73.5 -14.5q41 3 67 60q8 22 31 18q22 -4 22 -24 q0 -11 -8 -23q-27 -55 -62 -76t-75 -13t-77 24.5t-82 36t-76 22.5q-35 3 -60 -7.5t-45 -47.5q-9 -14 -25.5 -13t-23 13.5z" />
<glyph unicode="&#xd6;" horiz-adv-x="1525" d="M111 674q-4 -145 48 -275.5t141 -222.5t210 -146.5t252 -54.5q132 0 253.5 54.5t210.5 146.5t140 222.5t47 275.5q-6 242 -160 426.5t-393 222.5q-111 15 -221 0q-157 -25 -276.5 -120t-183 -232t-68.5 -297zM180 672q4 145 59.5 268.5t162 209t247.5 107.5q100 15 201 0 q142 -22 254.5 -107t175 -210t66.5 -268q4 -129 -42.5 -247t-126 -202t-188.5 -134t-227 -50q-117 0 -225.5 50t-188 134t-126 202t-42.5 247zM545 1503q0 23 16.5 38t38.5 15q20 0 36.5 -15.5t16.5 -37.5q0 -27 -16 -41t-37 -14q-22 0 -38.5 15.5t-16.5 39.5zM891 1503 q0 23 16 38t37 15t38 -15.5t17 -37.5q0 -27 -16 -41t-39 -14q-21 0 -37 15.5t-16 39.5z" />
<glyph unicode="&#xd8;" horiz-adv-x="1525" d="M111 674q5 160 68.5 297t183 232t276.5 120q111 15 221 0q106 -17 209 -74l90 160q11 23 30.5 26t28 -12t-0.5 -39l-95 -165q132 -91 209.5 -235t81.5 -310q4 -145 -47 -275.5t-140 -222.5t-210.5 -146.5t-253.5 -54.5q-158 0 -293 72l-109 -192q-12 -25 -30.5 -27.5 t-28.5 15t0 40.5l111 199q-142 93 -223.5 249.5t-77.5 342.5zM180 672q-4 -165 68 -306.5t196 -226.5l594 1053q-86 50 -188 65q-101 15 -201 0q-141 -22 -247.5 -107.5t-162 -209t-59.5 -268.5zM500 104q121 -65 262 -65q118 0 227 50t188.5 134t126 202t42.5 247 q-4 147 -72 276t-184 211z" />
<glyph unicode="&#xd9;" horiz-adv-x="1554" d="M188 573v715q0 20 16.5 28.5t33 -0.5t16.5 -30v-713q0 -125 45 -226.5t119 -163.5t168 -96t192.5 -34t192.5 34t168 96t119 163.5t45 226.5v713q0 21 16.5 30t33.5 0.5t17 -28.5v-715q0 -141 -51 -255.5t-134 -185t-189 -108.5t-217 -38t-217 38t-189 108.5t-134 185 t-51 255.5zM597 1644.5q10 18.5 29.5 20t35.5 -13.5l157 -197q9 -13 2.5 -28.5t-21 -17.5t-30.5 13l-168 185q-15 20 -5 38.5z" />
<glyph unicode="&#xda;" horiz-adv-x="1554" d="M188 573q0 -141 51 -255.5t134 -185t189 -108.5t217 -38t217 38t189 108.5t134 185t51 255.5v715q0 20 -17 28.5t-33.5 -0.5t-16.5 -30v-713q0 -125 -45 -226.5t-119 -163.5t-168 -96t-192.5 -34t-192.5 34t-168 96t-119 163.5t-45 226.5v713q0 21 -16.5 30t-33 0.5 t-16.5 -28.5v-715zM716 1443q0 9 5 17l158 197q14 17 35 13.5t29 -20t-5 -38.5l-168 -185q-9 -10 -19 -12.5t-17 1.5t-12.5 11t-5.5 16z" />
<glyph unicode="&#xdb;" horiz-adv-x="1554" d="M188 573q0 -141 51 -255.5t134 -185t189 -108.5t217 -38t217 38t189 108.5t134 185t51 255.5v715q0 20 -17 28.5t-33.5 -0.5t-16.5 -30v-713q0 -125 -45 -226.5t-119 -163.5t-168 -96t-192.5 -34t-192.5 34t-168 96t-119 163.5t-45 226.5v713q0 21 -16.5 30t-33 0.5 t-16.5 -28.5v-715zM556.5 1432q-1.5 17 18.5 36l166 158q40 32 74 0l176 -160q24 -22 10.5 -42.5t-41.5 -7.5q-7 3 -14 9l-168 150l-164 -148q-17 -19 -36.5 -15.5t-21 20.5z" />
<glyph unicode="&#xdc;" horiz-adv-x="1554" d="M188 573q0 -141 51 -255.5t134 -185t189 -108.5t217 -38t217 38t189 108.5t134 185t51 255.5v715q0 20 -17 28.5t-33.5 -0.5t-16.5 -30v-713q0 -125 -45 -226.5t-119 -163.5t-168 -96t-192.5 -34t-192.5 34t-168 96t-119 163.5t-45 226.5v713q0 21 -16.5 30t-33 0.5 t-16.5 -28.5v-715zM547 1475q0 23 16.5 38t38.5 15q20 0 36.5 -15.5t16.5 -37.5q0 -27 -16 -41.5t-37 -14.5q-22 0 -38.5 16t-16.5 40zM893 1475q0 23 16 38t37 15t38 -15.5t17 -37.5q0 -27 -16.5 -41.5t-38.5 -14.5q-21 0 -37 16t-16 40z" />
<glyph unicode="&#xdd;" horiz-adv-x="1263" d="M34.5 1302q-4.5 -17 10.5 -38l551 -734v-499q0 -19 10 -29t25 -10q14 0 24.5 10t10.5 29v499l548 734q17 19 11 38t-24.5 20t-37.5 -17l-532 -717l-535 717q-17 19 -37 16.5t-24.5 -19.5zM587 1437q0 9 5 17l158 197q14 17 35 13.5t29 -20t-5 -38.5l-168 -185 q-9 -10 -19 -12.5t-17 1.5t-12.5 11t-5.5 16z" />
<glyph unicode="&#xde;" horiz-adv-x="1298" d="M188 27v1251q0 20 17 28.5t34 -0.5t17 -30v-174h432q125 0 226.5 -40t165 -106.5t97 -148.5t33.5 -170q0 -91 -32.5 -168.5t-95.5 -137.5t-163.5 -94t-228.5 -34h-434v-174q0 -21 -17 -30t-34 -0.5t-17 28.5zM256 266h434q93 0 169.5 21t128.5 56.5t87.5 83.5t51 101 t14.5 109q-1 76 -32.5 147.5t-88 128t-142.5 91t-188 34.5h-434v-772z" />
<glyph unicode="&#xdf;" horiz-adv-x="1144" d="M166 -332v1299q0 78 23.5 138.5t61.5 97t90 60t103 32t107 8.5q57 0 110 -9.5t107 -33.5t93.5 -61t64 -96.5t24.5 -135.5q0 -98 -53.5 -168t-151.5 -101q138 -28 221 -109.5t83 -217.5q0 -84 -30.5 -150t-80 -106.5t-118.5 -67t-140.5 -37t-151.5 -10.5h-157 q-23 0 -32 15t0.5 30.5t31.5 15.5h157q70 0 130 8t120.5 29t103 54.5t69 89.5t26.5 129q0 97 -52.5 161.5t-136 91.5t-194.5 27h-219q-21 0 -30 16.5t0 33t30 16.5h110q83 0 151 13t124.5 40.5t87.5 77.5t31 119q0 77 -31 133t-82 85t-105 42.5t-112 13.5q-46 0 -87.5 -7 t-84 -26.5t-73 -49.5t-49.5 -79t-19 -112v-1299q0 -25 -17.5 -34t-35 1.5t-17.5 32.5z" />
<glyph unicode="&#xe0;" d="M100 545q5 159 87 288t225 185q99 42 217 39q137 -3 245 -66q104 -69 150 -190v207q0 36 35 36q37 0 37 -36v-981q0 -37 -37 -37q-35 0 -35 37v206q-46 -121 -150 -190q-99 -58 -214 -67.5t-234 36.5q-163 66 -247 207.5t-79 325.5zM172 547q-10 -259 180 -410 q108 -83 252 -92q102 -3 207 45q99 49 153 136t60 202v178q-6 115 -60 202t-153 136q-83 38 -182 41q-135 2 -252 -67t-168 -193q-34 -77 -37 -178zM446 1377.5q10 18.5 29 20t35 -13.5l158 -196q9 -13 2 -28.5t-21.5 -17.5t-30.5 13l-167 184q-15 20 -5 38.5z" />
<glyph unicode="&#xe1;" d="M100 545q5 159 87 288t225 185q99 42 217 39q137 -3 245 -66q104 -69 150 -190v207q0 36 35 36q37 0 37 -36v-981q0 -37 -37 -37q-35 0 -35 37v206q-46 -121 -150 -190q-99 -58 -214 -67.5t-234 36.5q-163 66 -247 207.5t-79 325.5zM172 547q-10 -259 180 -410 q108 -83 252 -92q102 -3 207 45q99 49 153 136t60 202v178q-6 115 -60 202t-153 136q-83 38 -182 41q-135 2 -252 -67t-168 -193q-34 -77 -37 -178zM577 1169q0 9 5 17l157 196q14 17 35.5 13.5t29.5 -20t-5 -38.5l-168 -184q-9 -10 -19 -12.5t-17 1.5t-12.5 11t-5.5 16z " />
<glyph unicode="&#xe2;" d="M100 545q5 159 87 288t225 185q99 42 217 39q137 -3 245 -66q104 -69 150 -190v207q0 36 35 36q37 0 37 -36v-981q0 -37 -37 -37q-35 0 -35 37v206q-46 -121 -150 -190q-99 -58 -214 -67.5t-234 36.5q-163 66 -247 207.5t-79 325.5zM172 547q-10 -259 180 -410 q108 -83 252 -92q102 -3 207 45q99 49 153 136t60 202v178q-6 115 -60 202t-153 136q-83 38 -182 41q-135 2 -252 -67t-168 -193q-34 -77 -37 -178zM399.5 1156q-1.5 17 18.5 36l166 158q22 17 38 17t35 -17l177 -160q25 -22 10 -43q-15 -20 -44 -6q-6 3 -12 8l-167 149 l-164 -147q-17 -19 -36.5 -15.5t-21 20.5z" />
<glyph unicode="&#xe3;" d="M100 545q5 159 87 288t225 185q99 42 217 39q137 -3 245 -66q104 -69 150 -190v207q0 36 35 36q37 0 37 -36v-981q0 -37 -37 -37q-35 0 -35 37v206q-46 -121 -150 -190q-99 -58 -214 -67.5t-234 36.5q-163 66 -247 207.5t-79 325.5zM172 547q-10 -259 180 -410 q108 -83 252 -92q102 -3 207 45q99 49 153 136t60 202v178q-6 115 -60 202t-153 136q-83 38 -182 41q-135 2 -252 -67t-168 -193q-34 -77 -37 -178zM381.5 1211q-6.5 13 5.5 34q36 57 80 75.5t87.5 6t83.5 -32.5t83.5 -38.5t73.5 -14.5q41 3 67 59q8 22 31 19q22 -4 22 -24 q0 -11 -8 -23q-27 -55 -62 -76t-75 -13t-77 24.5t-82 36t-76 22.5q-35 3 -60 -8t-45 -48q-9 -14 -25.5 -13t-23 14z" />
<glyph unicode="&#xe4;" d="M100 545q5 159 87 288t225 185q99 42 217 39q137 -3 245 -66q104 -69 150 -190v207q0 36 35 36q37 0 37 -36v-981q0 -37 -37 -37q-35 0 -35 37v206q-46 -121 -150 -190q-99 -58 -214 -67.5t-234 36.5q-163 66 -247 207.5t-79 325.5zM172 547q-10 -259 180 -410 q108 -83 252 -92q102 -3 207 45q99 49 153 136t60 202v178q-6 115 -60 202t-153 136q-83 38 -182 41q-135 2 -252 -67t-168 -193q-34 -77 -37 -178zM412 1260q0 23 16.5 38t38.5 15q20 0 36.5 -15.5t16.5 -37.5q0 -27 -16 -41.5t-37 -14.5q-22 0 -38.5 16t-16.5 40z M758 1260q0 23 16 38t37 15t38 -15.5t17 -37.5q0 -27 -16.5 -41.5t-38.5 -14.5q-21 0 -37 16t-16 40z" />
<glyph unicode="&#xe5;" d="M100 545q5 159 87 288t225 185q99 42 217 39q137 -3 245 -66q104 -69 150 -190v207q0 36 35 36q37 0 37 -36v-981q0 -37 -37 -37q-35 0 -35 37v206q-46 -121 -150 -190q-99 -58 -214 -67.5t-234 36.5q-163 66 -247 207.5t-79 325.5zM172 547q-10 -259 180 -410 q108 -83 252 -92q102 -3 207 45q99 49 153 136t60 202v178q-6 115 -60 202t-153 136q-83 38 -182 41q-135 2 -252 -67t-168 -193q-34 -77 -37 -178zM469 1264q0 61 43 103t106 42q62 0 105 -42t43 -103q0 -63 -43 -105.5t-105 -42.5q-63 0 -106 42.5t-43 105.5zM528 1264 q0 -37 26.5 -62.5t63.5 -25.5q36 0 62.5 26t26.5 62q0 35 -26.5 60.5t-62.5 25.5q-37 0 -63.5 -25.5t-26.5 -60.5z" />
<glyph unicode="&#xe6;" horiz-adv-x="2187" d="M100 545q5 159 87 288t225 185q99 42 217 39q137 -3 245 -66q110 -73 154 -190v207q0 24 16.5 33t33 -1t16.5 -32v-207q48 85 127.5 147.5t179.5 91.5q154 41 309 0q173 -46 273.5 -182.5t103.5 -333.5q2 -27 -12.5 -47t-51.5 -20h-927q16 -137 108 -246 q63 -75 155 -114.5t195 -41.5q181 -3 322 105q29 22 52 0t-5 -51q-67 -63 -162 -94t-200 -29q-146 2 -274 70t-193 192v-221q0 -22 -16.5 -32t-33 -1t-16.5 33v206q-44 -117 -154 -190q-99 -58 -214 -67.5t-234 36.5q-163 66 -247 207.5t-79 325.5zM172 547 q-10 -259 180 -410q108 -83 252 -92q102 -3 207 45q100 49 155.5 136.5t61.5 201.5v178q-6 114 -61.5 201.5t-155.5 136.5q-83 38 -182 41q-135 2 -252 -67t-168 -193q-34 -77 -37 -178zM1094 524h923q-3 170 -89.5 290t-239.5 161q-135 33 -263 -2q-147 -40 -236 -160.5 t-95 -273.5v-15z" />
<glyph unicode="&#xe7;" horiz-adv-x="1075" d="M88 557q11 176 108 306.5t259 172.5q150 34 289 -5t231 -148q8 -11 8 -21q2 -15 -6.5 -26.5t-24.5 -12.5q-19 -3 -32 13q-77 94 -198.5 127.5t-244.5 3.5q-111 -30 -190 -118t-109 -197t-10 -229t94 -210q61 -75 154 -116t189 -42t189.5 39.5t153.5 118.5q11 11 25 14 q30 3 41 -30q0 -21 -8 -29q-70 -88 -172.5 -133t-217.5 -47l-20 -60q85 9 141 -29.5t56 -105.5q0 -73 -56 -112t-131 -39q-133 0 -196 108q-11 17 -2.5 32t23.5 15.5t28 -14.5q47 -78 145 -78q55 0 90 21t35 67q0 52 -54.5 74t-113.5 6l-26 33l26 82q-105 9 -197.5 55 t-156.5 125q-131 158 -119 389z" />
<glyph unicode="&#xe8;" horiz-adv-x="1267" d="M102 559q8 168 110 302t265 179q154 41 309 0q173 -46 273.5 -182.5t103.5 -333.5q2 -27 -12 -47t-51 -20h-922q16 -139 105 -244q63 -75 154.5 -115.5t193.5 -42.5q180 -3 321 105q29 22 52 0t-5 -51q-67 -63 -162 -94t-200 -29q-125 2 -234.5 48t-177.5 134 q-134 173 -123 391zM176 524h918q-3 170 -90 290t-240 161q-135 33 -262 -2q-150 -40 -237 -165.5t-89 -283.5zM480 1386.5q10 18.5 29.5 20t35.5 -13.5l157 -197q9 -13 2.5 -28.5t-21 -17.5t-30.5 13l-168 185q-15 20 -5 38.5z" />
<glyph unicode="&#xe9;" horiz-adv-x="1267" d="M102 559q8 168 110 302t265 179q154 41 309 0q173 -46 273.5 -182.5t103.5 -333.5q2 -27 -12 -47t-51 -20h-922q16 -139 105 -244q63 -75 154.5 -115.5t193.5 -42.5q180 -3 321 105q29 22 52 0t-5 -51q-67 -63 -162 -94t-200 -29q-125 2 -234.5 48t-177.5 134 q-134 173 -123 391zM176 524h918q-3 170 -90 290t-240 161q-135 33 -262 -2q-150 -40 -237 -165.5t-89 -283.5zM585 1185q0 9 5 17l158 197q14 17 35 13.5t29 -20t-5 -38.5l-168 -185q-9 -10 -19 -12.5t-17 1.5t-12.5 11t-5.5 16z" />
<glyph unicode="&#xea;" horiz-adv-x="1267" d="M102 559q8 168 110 302t265 179q154 41 309 0q173 -46 273.5 -182.5t103.5 -333.5q2 -27 -12 -47t-51 -20h-922q16 -139 105 -244q63 -75 154.5 -115.5t193.5 -42.5q180 -3 321 105q29 22 52 0t-5 -51q-67 -63 -162 -94t-200 -29q-125 2 -234.5 48t-177.5 134 q-134 173 -123 391zM176 524h918q-3 170 -90 290t-240 161q-135 33 -262 -2q-150 -40 -237 -165.5t-89 -283.5zM428 1195q5 10 16 19l166 158q40 32 74 0l176 -160q24 -22 10.5 -42.5t-41.5 -7.5q-7 3 -14 9l-168 150l-164 -147q-23 -25 -45 -13q-20 11 -10 34z" />
<glyph unicode="&#xeb;" horiz-adv-x="1267" d="M102 559q8 168 110 302t265 179q154 41 309 0q173 -46 273.5 -182.5t103.5 -333.5q2 -27 -12 -47t-51 -20h-922q16 -139 105 -244q63 -75 154.5 -115.5t193.5 -42.5q180 -3 321 105q29 22 52 0t-5 -51q-67 -63 -162 -94t-200 -29q-125 2 -234.5 48t-177.5 134 q-134 173 -123 391zM176 524h918q-3 170 -90 290t-240 161q-135 33 -262 -2q-150 -40 -237 -165.5t-89 -283.5zM412 1264q0 23 16.5 38t38.5 15q20 0 36.5 -15.5t16.5 -37.5q0 -27 -16 -41.5t-37 -14.5q-22 0 -38.5 16t-16.5 40zM758 1264q0 23 16 38t37 15t38 -15.5 t17 -37.5q0 -27 -16.5 -41.5t-38.5 -14.5q-21 0 -37 16t-16 40z" />
<glyph unicode="&#xec;" horiz-adv-x="403" d="M11 1408.5q10 18.5 29.5 20t35.5 -13.5l157 -196q9 -13 2.5 -28.5t-21 -17.5t-30.5 13l-168 184q-15 20 -5 38.5zM168 37v975q0 23 18 32.5t36 0.5t18 -31v-977q0 -23 -18 -32.5t-36 0t-18 32.5z" />
<glyph unicode="&#xed;" horiz-adv-x="403" d="M168 37q0 -23 18 -32.5t36 0t18 32.5v977q0 22 -18 31t-36 -0.5t-18 -32.5v-975zM175.5 1182q-4.5 14 2.5 28l158 197q14 17 35 13.5t29 -20t-5 -38.5l-168 -184q-14 -16 -30.5 -13t-21 17z" />
<glyph unicode="&#xee;" horiz-adv-x="403" d="M-12 1195q5 10 16 19l166 158q40 32 74 0l176 -160q24 -22 10.5 -42.5t-41.5 -7.5l-14 9l-168 150l-164 -147q-23 -25 -45 -13q-20 11 -10 34zM168 37q0 -23 18 -32.5t36 0t18 32.5v977q0 22 -18 31t-36 -0.5t-18 -32.5v-975z" />
<glyph unicode="&#xef;" horiz-adv-x="403" d="M-20 1303q0 23 16.5 38t38.5 15q20 0 36.5 -15.5t16.5 -37.5q0 -27 -16 -41.5t-37 -14.5q-22 0 -38.5 16t-16.5 40zM168 37q0 -23 18 -32.5t36 0t18 32.5v977q0 22 -18 31t-36 -0.5t-18 -32.5v-975zM326 1303q0 23 16 38t37 15t38 -15.5t17 -37.5q0 -27 -16.5 -41.5 t-38.5 -14.5q-21 0 -37 16t-16 40z" />
<glyph unicode="&#xf0;" horiz-adv-x="1187" d="M102 377.5q-58 196.5 19 374.5q37 88 105 152.5t148 97.5t171 38t174.5 -19t158 -80.5t121.5 -139.5q0 131 -8 186q-22 160 -137 258l-106 -117q-16 -17 -35.5 -13t-24.5 20t10 34l105 115l-8 6q-133 77 -294.5 57t-271.5 -130q-29 -26 -52 -3t3 52q126 126 326 149 q190 16 342 -80q0 -2 2 -2l84 92q16 17 35 14t23.5 -19t-9.5 -34l-84 -90q137 -119 158 -303q5 -34 7 -72.5t2 -64.5t-0.5 -72.5t-0.5 -68.5v-297q-2 -109 -54 -204t-149 -153q-120 -73 -272.5 -67.5t-267.5 82.5q-162 105 -220 301.5zM168 412q49 -183 190 -275 q106 -72 233 -77t238 61q77 45 122 125.5t48 171.5v221q-19 94 -77 167t-135 112.5t-167.5 49t-173.5 -12.5t-153.5 -82t-106.5 -150q-59 -146 -18 -311z" />
<glyph unicode="&#xf1;" horiz-adv-x="1320" d="M168 23v989q0 14 10 24.5t27 10.5q35 0 35 -37v-283q34 123 126 206t209 114q68 20 137.5 16t134.5 -21.5t122 -58t99 -92.5t66.5 -125.5t24.5 -157.5v-585q0 -37 -35 -37q-37 0 -37 37v585q0 97 -42.5 179t-111.5 130t-156.5 68t-178.5 -6q-156 -39 -254.5 -171 t-103.5 -296v-489q0 -37 -35 -37q-37 0 -37 37zM424.5 1228q-6.5 13 5.5 34q31 48 67.5 68.5t70 17t72 -18t70.5 -32.5t67 -30.5t61 -9.5q41 3 67 60q8 22 31 18q22 -4 22 -24q0 -11 -8 -23q-27 -55 -62 -76t-75 -13t-77 24.5t-82 36t-76 22.5q-35 3 -60 -7.5t-45 -47.5 q-9 -14 -25.5 -13t-23 14z" />
<glyph unicode="&#xf2;" d="M100 559q14 170 114 303.5t261 177.5q154 41 309 0q161 -45 262 -178.5t115 -302.5q12 -228 -123 -391q-75 -89 -180 -135.5t-227 -46.5t-228 46.5t-180 135.5q-135 163 -123 391zM183.5 424.5q21.5 -120.5 97.5 -211.5q63 -75 155 -116.5t195 -41.5q104 0 197.5 41.5 t156.5 116.5q76 91 97 211.5t-10 230t-113 197.5t-197 119q-139 34 -262 0q-115 -30 -196.5 -118.5t-111.5 -198t-8.5 -230zM452 1422.5q10 18.5 29 20.5t35 -13l158 -197q9 -13 2.5 -28.5t-21 -17.5t-30.5 13l-168 184q-15 20 -5 38.5z" />
<glyph unicode="&#xf3;" d="M100 559q14 170 114 303.5t261 177.5q154 41 309 0q161 -45 262 -178.5t115 -302.5q12 -228 -123 -391q-75 -89 -180 -135.5t-227 -46.5t-228 46.5t-180 135.5q-135 163 -123 391zM183.5 424.5q21.5 -120.5 97.5 -211.5q63 -75 155 -116.5t195 -41.5q104 0 197.5 41.5 t156.5 116.5q76 91 97 211.5t-10 230t-113 197.5t-197 119q-139 34 -262 0q-115 -30 -196.5 -118.5t-111.5 -198t-8.5 -230zM585 1206q0 9 5 17l158 196q14 17 35 13.5t29 -20t-5 -38.5l-168 -184q-9 -10 -19 -12.5t-17 1.5t-12.5 11t-5.5 16z" />
<glyph unicode="&#xf4;" d="M100 559q14 170 114 303.5t261 177.5q154 41 309 0q161 -45 262 -178.5t115 -302.5q12 -228 -123 -391q-75 -89 -180 -135.5t-227 -46.5t-228 46.5t-180 135.5q-135 163 -123 391zM183.5 424.5q21.5 -120.5 97.5 -211.5q63 -75 155 -116.5t195 -41.5q104 0 197.5 41.5 t156.5 116.5q76 91 97 211.5t-10 230t-113 197.5t-197 119q-139 34 -262 0q-115 -30 -196.5 -118.5t-111.5 -198t-8.5 -230zM434 1217q6 10 15 18l165 158q40 32 74 0l176 -160q24 -22 10.5 -42.5t-41.5 -7.5q-7 3 -14 9l-168 149l-164 -147q-24 -26 -45 -12q-20 12 -8 35z " />
<glyph unicode="&#xf5;" d="M100 559q14 170 114 303.5t261 177.5q154 41 309 0q161 -45 262 -178.5t115 -302.5q12 -228 -123 -391q-75 -89 -180 -135.5t-227 -46.5t-228 46.5t-180 135.5q-135 163 -123 391zM183.5 424.5q21.5 -120.5 97.5 -211.5q63 -75 155 -116.5t195 -41.5q104 0 197.5 41.5 t156.5 116.5q76 91 97 211.5t-10 230t-113 197.5t-197 119q-139 34 -262 0q-115 -30 -196.5 -118.5t-111.5 -198t-8.5 -230zM375.5 1236q-6.5 13 5.5 34q36 57 80 75.5t87 6t83 -32.5t83.5 -38.5t73.5 -14.5q42 3 68 59q8 22 31 18q22 -4 22 -24q0 -11 -8 -23 q-27 -55 -62.5 -76t-75 -13t-77 24.5t-82.5 36t-76 22.5q-35 3 -59.5 -7.5t-44.5 -47.5q-9 -14 -25.5 -13t-23 14z" />
<glyph unicode="&#xf6;" d="M100 559q14 170 114 303.5t261 177.5q154 41 309 0q161 -45 262 -178.5t115 -302.5q12 -228 -123 -391q-75 -89 -180 -135.5t-227 -46.5t-228 46.5t-180 135.5q-135 163 -123 391zM183.5 424.5q21.5 -120.5 97.5 -211.5q63 -75 155 -116.5t195 -41.5q104 0 197.5 41.5 t156.5 116.5q76 91 97 211.5t-10 230t-113 197.5t-197 119q-139 34 -262 0q-115 -30 -196.5 -118.5t-111.5 -198t-8.5 -230zM420 1309q0 23 16.5 38t38.5 15q20 0 36.5 -15.5t16.5 -37.5q0 -27 -16 -41.5t-37 -14.5q-22 0 -38.5 16t-16.5 40zM766 1309q0 23 16 38t37 15 t38 -15.5t17 -37.5q0 -27 -16.5 -41.5t-38.5 -14.5q-21 0 -37 16t-16 40z" />
<glyph unicode="&#xf7;" horiz-adv-x="1060" d="M100 633q0 13 11 24t24 11h750q13 0 23 -10.5t10 -24.5q0 -33 -33 -33h-750q-14 0 -24.5 10t-10.5 23zM449 381q0 23 14 38t37 15t38 -15t15 -38t-15 -38t-38 -15t-37 15t-14 38zM449 907q0 24 14 39t37 15t38 -15.5t15 -38.5t-15 -37t-38 -14t-37 14t-14 37z" />
<glyph unicode="&#xf8;" d="M100 559q14 170 114 303.5t261 177.5q154 41 309 0q38 -10 88 -34l91 157q11 23 31.5 26t32.5 -13t1 -39l-96 -166q98 -68 158 -177.5t71 -234.5q12 -228 -123 -391q-75 -89 -180 -135.5t-227 -46.5q-129 0 -236 49l-94 -164q-12 -25 -31 -27t-29.5 15.5t-0.5 40.5 l96 168q-61 38 -113 100q-135 163 -123 391zM183.5 424.5q21.5 -120.5 97.5 -211.5q37 -45 90 -82l465 811q-31 16 -74 29q-139 34 -262 0q-115 -30 -196.5 -118.5t-111.5 -198t-8.5 -230zM430 98q90 -43 201 -43q104 0 197.5 41.5t156.5 116.5q86 103 102 238t-36 258 t-156 198z" />
<glyph unicode="&#xf9;" horiz-adv-x="1323" d="M164 428v588q0 37 35 37q37 0 37 -37v-588q0 -126 71.5 -223t185 -137t232.5 -9q156 39 254.5 171t103.5 296v490q0 37 35 37q37 0 37 -37v-989q0 -14 -10 -24.5t-27 -10.5q-35 0 -35 37v295q-34 -124 -129 -213.5t-211 -120.5q-66 -17 -134.5 -11t-133 24t-121 57.5 t-99 90.5t-67 122.5t-24.5 154.5zM511 1422.5q10 18.5 29 20.5t35 -13l158 -197q9 -13 2.5 -28.5t-21 -17.5t-30.5 13l-168 184q-15 20 -5 38.5z" />
<glyph unicode="&#xfa;" horiz-adv-x="1323" d="M164 428v588q0 37 35 37q37 0 37 -37v-588q0 -126 71.5 -223t185 -137t232.5 -9q156 39 254.5 171t103.5 296v490q0 37 35 37q37 0 37 -37v-989q0 -14 -10 -24.5t-27 -10.5q-35 0 -35 37v295q-34 -124 -129 -213.5t-211 -120.5q-66 -17 -134.5 -11t-133 24t-121 57.5 t-99 90.5t-67 122.5t-24.5 154.5zM595.5 1186q-4.5 14 2.5 28l158 197q14 17 35 13.5t29 -20t-5 -38.5l-168 -184q-14 -16 -30.5 -13t-21 17z" />
<glyph unicode="&#xfb;" horiz-adv-x="1323" d="M164 428v588q0 37 35 37q37 0 37 -37v-588q0 -126 71.5 -223t185 -137t232.5 -9q156 39 254.5 171t103.5 296v490q0 37 35 37q37 0 37 -37v-989q0 -14 -10 -24.5t-27 -10.5q-35 0 -35 37v295q-34 -124 -129 -213.5t-211 -120.5q-66 -17 -134.5 -11t-133 24t-121 57.5 t-99 90.5t-67 122.5t-24.5 154.5zM440.5 1191q-1.5 17 18.5 36l166 157q22 17 38 17t35 -17l176 -159q24 -22 10.5 -42.5t-41.5 -7.5q-7 3 -14 9l-167 149l-164 -147q-17 -19 -36.5 -15.5t-21 20.5z" />
<glyph unicode="&#xfc;" horiz-adv-x="1323" d="M164 428v588q0 37 35 37q37 0 37 -37v-588q0 -126 71.5 -223t185 -137t232.5 -9q156 39 254.5 171t103.5 296v490q0 37 35 37q37 0 37 -37v-989q0 -14 -10 -24.5t-27 -10.5q-35 0 -35 37v295q-34 -124 -129 -213.5t-211 -120.5q-66 -17 -134.5 -11t-133 24t-121 57.5 t-99 90.5t-67 122.5t-24.5 154.5zM457 1300q0 23 16.5 38.5t38.5 15.5q20 0 36.5 -16t16.5 -38q0 -27 -16 -41t-37 -14q-22 0 -38.5 15.5t-16.5 39.5zM803 1300q0 23 16 38.5t37 15.5t38 -15.5t17 -38.5q0 -27 -16 -41t-39 -14q-21 0 -37 15.5t-16 39.5z" />
<glyph unicode="&#xfd;" horiz-adv-x="1144" d="M43 1001l489 -964l-190 -385q-9 -24 2.5 -40.5t31 -12.5t32.5 30l694 1372q16 28 -11 45q-25 16 -46 -2q-9 -7 -13 -18l-454 -920l-465 920q-13 20 -32 21.5t-31 -12.5t-7 -34zM548 1214q0 9 5 17l158 196q14 17 35 13.5t29 -20t-5 -38.5l-168 -184q-9 -10 -19 -12.5 t-17 1.5t-12.5 11t-5.5 16z" />
<glyph unicode="&#xfe;" horiz-adv-x="1267" d="M166 -350v1753q0 37 37 37q35 0 35 -37v-592q49 116 156 179.5t239 66.5q118 3 217 -39q143 -56 224.5 -184.5t86.5 -288.5q5 -184 -79 -325.5t-246 -207.5q-119 -46 -234.5 -36.5t-214.5 67.5q-107 71 -149 182v-575q0 -35 -37 -35q-14 0 -24.5 9.5t-10.5 25.5zM238 428 q6 -115 60 -202t153 -136q105 -48 206 -45q144 9 252 92q191 152 181 410q-3 101 -37 178q-51 124 -168 193t-252 67q-169 -6 -276.5 -112t-118.5 -267v-178z" />
<glyph unicode="&#xff;" horiz-adv-x="1144" d="M43 1001l489 -964l-190 -385q-9 -24 2.5 -40.5t31 -12.5t32.5 30l694 1372q16 28 -11 45q-25 16 -46 -2q-9 -7 -13 -18l-454 -920l-465 920q-13 20 -32 21.5t-31 -12.5t-7 -34zM365 1311q0 23 16.5 38t38.5 15q20 0 36.5 -15.5t16.5 -37.5q0 -27 -16 -41.5t-37 -14.5 q-22 0 -38.5 16t-16.5 40zM711 1311q0 23 16 38t37 15t38 -15.5t17 -37.5q0 -27 -16.5 -41.5t-38.5 -14.5q-21 0 -37 16t-16 40z" />
<glyph unicode="&#x152;" horiz-adv-x="2215" d="M111 674q5 160 68.5 297t183 232t276.5 120q111 15 221 0q184 -30 322 -149v75q0 22 15.5 38t39.5 16h834q19 0 27 -15.5t-1 -31t-29 -15.5h-819v-565h779q20 0 28.5 -15.5t0 -31t-28.5 -15.5h-779v-548h819q20 0 28.5 -16.5t0 -33t-28.5 -16.5h-831q-24 0 -39.5 15.5 t-15.5 39.5v78q-182 -158 -420 -158q-131 0 -252 54.5t-210 146.5t-141 222.5t-48 275.5zM180 672q-4 -129 42.5 -247t126 -202t188 -134t225.5 -50q258 0 420 174v879q-109 106 -249 147t-284 18q-141 -22 -247.5 -107.5t-162 -209t-59.5 -268.5z" />
<glyph unicode="&#x153;" horiz-adv-x="2254" d="M100 559q14 170 114 303.5t261 177.5q154 41 309 0q120 -34 212.5 -128.5t131.5 -213.5q36 123 125.5 215t212.5 127q155 41 310 0q173 -46 273 -182.5t103 -333.5q2 -27 -12 -47t-51 -20h-924q15 -136 107 -244q63 -75 154.5 -115.5t193.5 -42.5q181 -3 322 105 q29 22 52 0t-5 -51q-67 -63 -162.5 -94t-200.5 -29q-125 2 -234.5 48t-177.5 134q-67 85 -88 192q-24 -118 -88 -192q-75 -89 -180 -135.5t-227 -46.5t-228 46.5t-180 135.5q-135 163 -123 391zM183.5 424.5q21.5 -120.5 97.5 -211.5q63 -75 155 -116.5t195 -41.5 q104 0 197.5 41.5t156.5 116.5q76 91 97 211.5t-10 230t-113 197.5t-197 119q-139 34 -262 0q-115 -30 -196.5 -118.5t-111.5 -198t-8.5 -230zM1163 524h920q-3 170 -90 290t-240 161q-135 33 -262 -2q-150 -40 -238 -165.5t-90 -283.5z" />
<glyph unicode="&#x178;" horiz-adv-x="1263" d="M34.5 1302q-4.5 -17 10.5 -38l551 -734v-499q0 -19 10 -29t25 -10q14 0 24.5 10t10.5 29v499l548 734q17 19 11 38t-24.5 20t-37.5 -17l-532 -717l-535 717q-17 19 -37 16.5t-24.5 -19.5zM406 1430q0 23 16.5 38t38.5 15q20 0 36.5 -15.5t16.5 -37.5q0 -27 -16 -41.5 t-37 -14.5q-22 0 -38.5 16t-16.5 40zM752 1430q0 23 16 38t37 15t38 -15.5t17 -37.5q0 -27 -16.5 -41.5t-38.5 -14.5q-21 0 -37 16t-16 40z" />
<glyph unicode="&#x2c6;" horiz-adv-x="681" d="M92.5 1215q-1.5 17 18.5 36l165 158q40 32 74 0l176 -160q24 -22 10.5 -42.5t-41.5 -7.5l-14 9l-168 150l-163 -148q-17 -19 -36.5 -15.5t-21 20.5z" />
<glyph unicode="&#x2dc;" horiz-adv-x="745" d="M115.5 1318q-6.5 13 5.5 34q36 57 80 75.5t87 6t83 -32.5t83.5 -38.5t73.5 -14.5q42 3 68 59q8 22 31 18q22 -4 22 -24q0 -11 -8 -23q-27 -55 -62.5 -76t-75 -13t-77 24.5t-82.5 36t-76 22.5q-35 3 -59.5 -7.5t-44.5 -47.5q-9 -14 -25.5 -13t-23 14z" />
<glyph unicode="&#x2000;" horiz-adv-x="843" />
<glyph unicode="&#x2001;" horiz-adv-x="1686" />
<glyph unicode="&#x2002;" horiz-adv-x="843" />
<glyph unicode="&#x2003;" horiz-adv-x="1686" />
<glyph unicode="&#x2004;" horiz-adv-x="562" />
<glyph unicode="&#x2005;" horiz-adv-x="421" />
<glyph unicode="&#x2006;" horiz-adv-x="281" />
<glyph unicode="&#x2007;" horiz-adv-x="281" />
<glyph unicode="&#x2008;" horiz-adv-x="210" />
<glyph unicode="&#x2009;" horiz-adv-x="337" />
<glyph unicode="&#x200a;" horiz-adv-x="93" />
<glyph unicode="&#x2010;" horiz-adv-x="841" d="M123.5 598q-9.5 18 1 35.5t33.5 17.5h446q23 0 32.5 -17.5t0 -35.5t-32.5 -18h-446q-25 0 -34.5 18z" />
<glyph unicode="&#x2011;" horiz-adv-x="841" d="M123.5 598q-9.5 18 1 35.5t33.5 17.5h446q23 0 32.5 -17.5t0 -35.5t-32.5 -18h-446q-25 0 -34.5 18z" />
<glyph unicode="&#x2012;" horiz-adv-x="841" d="M123.5 598q-9.5 18 1 35.5t33.5 17.5h446q23 0 32.5 -17.5t0 -35.5t-32.5 -18h-446q-25 0 -34.5 18z" />
<glyph unicode="&#x2013;" horiz-adv-x="831" d="M96.5 600q-9.5 18 1 35.5t33.5 17.5h565q23 0 32.5 -17.5t0 -35.5t-32.5 -18h-565q-25 0 -34.5 18z" />
<glyph unicode="&#x2014;" horiz-adv-x="1105" d="M96.5 601q-9.5 17 1 34.5t33.5 17.5h850q23 0 32.5 -17.5t0 -34.5t-32.5 -17h-850q-25 0 -34.5 17z" />
<glyph unicode="&#x2018;" horiz-adv-x="296" d="M76 1079q-1 14 6 27l98 209q9 19 28 19.5t30 -15t2 -33.5l-93 -207q-16 -37 -46 -30q-22 6 -25 30z" />
<glyph unicode="&#x2019;" horiz-adv-x="237" d="M45 1085l92 207q16 37 45 30q23 -5 27 -28q2 -14 -6 -28l-99 -209q-9 -19 -28 -19.5t-29.5 14.5t-1.5 33z" />
<glyph unicode="&#x201a;" horiz-adv-x="301" d="M37 -166l92 207q16 37 45 30q23 -5 27 -29q2 -14 -6 -28l-99 -209q-9 -19 -28 -19.5t-29.5 15t-1.5 33.5z" />
<glyph unicode="&#x201c;" horiz-adv-x="471" d="M57 1066q-2 14 6 28l99 209q9 19 28 19.5t29.5 -15t1.5 -33.5l-92 -207q-16 -37 -45 -30q-23 5 -27 29zM258 1066q-2 14 6 28l98 209q9 19 28 19.5t30 -15t2 -33.5l-92 -207q-16 -37 -45 -30q-23 5 -27 29z" />
<glyph unicode="&#x201d;" horiz-adv-x="458" d="M57 1085l93 207q16 37 46 30q22 -5 25 -29q1 -14 -6 -27l-98 -209q-9 -19 -28 -19.5t-30 14.5t-2 33zM258 1085l92 207q16 37 45 30q23 -5 27 -28q2 -14 -6 -28l-99 -209q-9 -19 -28 -19.5t-29.5 14.5t-1.5 33z" />
<glyph unicode="&#x201e;" horiz-adv-x="495" d="M37 -166l92 207q16 37 45 30q23 -5 27 -29q2 -14 -6 -28l-99 -209q-9 -19 -28 -19.5t-29.5 15t-1.5 33.5zM285 -166l92 207q16 37 46 30q22 -6 25 -30q2 -14 -6 -27l-98 -209q-9 -19 -28 -19.5t-29.5 15t-1.5 33.5z" />
<glyph unicode="&#x2022;" horiz-adv-x="479" d="M84 614q0 61 40.5 102.5t98.5 41.5q61 0 102.5 -41t41.5 -103q0 -58 -41.5 -98.5t-102.5 -40.5q-57 0 -98 41t-41 98z" />
<glyph unicode="&#x2026;" horiz-adv-x="770" d="M88 53q0 23 15 37t38 14t37.5 -14t14.5 -37t-14.5 -38t-37.5 -15t-38 15t-15 38zM334 53q0 23 15 37t38 14t37 -14t14 -37t-14 -38t-37 -15t-38 15t-15 38zM582 53q0 23 14 37t37 14t38 -14t15 -37t-15 -38t-38 -15t-37 15t-14 38z" />
<glyph unicode="&#x202f;" horiz-adv-x="337" />
<glyph unicode="&#x2039;" horiz-adv-x="647" d="M106 496q-36 34 5 75l381 367q10 10 22 10q37 0 37 -37q0 -11 -12 -26l-367 -355l365 -352q14 -14 14 -28t-10 -24.5t-27 -10.5q-15 0 -27 12z" />
<glyph unicode="&#x203a;" horiz-adv-x="618" d="M90 133q0 15 14 29l365 352l-367 354q-12 15 -12 27q0 37 37 37q13 0 23 -10l380 -367q42 -42 5 -76l-381 -368q-13 -13 -27 -13q-17 0 -27 10.5t-10 24.5z" />
<glyph unicode="&#x205f;" horiz-adv-x="421" />
<glyph unicode="&#x20ac;" horiz-adv-x="1384" d="M-7 782q-8 14 0 28.5t27 14.5h125q46 191 182 326t332 166q162 24 320 -23t262 -161q16 -18 9.5 -37t-24 -21.5t-34.5 12.5q-93 103 -234 143t-288 19q-172 -27 -292.5 -142.5t-164.5 -281.5h356q22 0 31 -14.5t0 -28.5t-31 -14h-370q-16 -113 -2 -209h372q21 0 30 -14.5 t0 -28.5t-30 -14h-358q34 -132 122 -236t203 -160t256.5 -56.5t274.5 65.5q117 58 193 157q14 19 33 16.5t25.5 -19t-5.5 -36.5q-80 -113 -217 -180q-120 -60 -247.5 -72t-240.5 22.5t-209.5 102.5t-163.5 171t-94 225h-121q-18 0 -26 14t0 28.5t26 14.5h115q-12 118 4 209 h-119q-19 0 -27 14z" />
<glyph unicode="&#x2122;" horiz-adv-x="1298" d="M44 1257q-6 16 0 32t22 16h446q18 0 26 -16t0 -32t-26 -16h-190v-461q0 -17 -10.5 -24.5t-22.5 -7.5q-13 0 -24 7.5t-11 24.5v461h-188q-16 0 -22 16zM612 782v492q0 27 23.5 32.5t40.5 -18.5l209 -325l207 325q15 24 39 18.5t24 -32.5v-492q0 -17 -17 -24.5t-34 0 t-17 24.5v383l-174 -274l2 2q-10 -21 -30.5 -22t-32.5 18l-172 272v-379q0 -20 -17 -28.5t-34 0t-17 28.5z" />
<glyph unicode="&#xe000;" horiz-adv-x="1054" d="M0 0v1055h1055v-1055h-1055z" />
</font>
</defs>
</svg>
